<?xml version="1.0" standalone="no"?><!-- Generator: Gravit.io --><svg xmlns="http://www.w3.org/2000/svg" xmlns:xlink="http://www.w3.org/1999/xlink" style="isolation:isolate" viewBox="9.924 40 541.152 120" width="541.152" height="120"><g><path d=" M 24.084 157.768 L 10.212 157.768 L 10.212 130.648 L 24.084 130.648 L 24.084 157.768 L 24.084 157.768 Z  M 21.228 138.592 L 21.708 141.712 L 23.292 141.544 L 22.788 137.056 L 11.46 137.056 L 11.46 138.592 L 13.428 138.592 L 13.428 151.12 L 11.46 151.12 L 11.46 152.656 L 17.94 152.656 L 17.94 151.12 L 15.18 151.12 L 15.18 146.2 L 22.356 146.2 L 22.356 144.664 L 15.18 144.664 L 15.18 138.592 L 21.228 138.592 L 21.228 138.592 Z  M 38.796 157.768 L 23.508 157.768 L 23.508 130.648 L 38.796 130.648 L 38.796 157.768 L 38.796 157.768 Z  M 31.836 146.128 L 35.196 152.656 L 38.316 152.656 L 38.316 151.12 L 36.348 151.12 L 33.564 145.792 L 33.564 145.792 Q 35.22 145.36 36.06 144.172 L 36.06 144.172 L 36.06 144.172 Q 36.9 142.984 36.9 141.472 L 36.9 141.472 L 36.9 141.472 Q 36.9 139.576 35.652 138.316 L 35.652 138.316 L 35.652 138.316 Q 34.404 137.056 31.5 137.056 L 31.5 137.056 L 24.756 137.056 L 24.756 138.592 L 26.724 138.592 L 26.724 151.12 L 24.756 151.12 L 24.756 152.656 L 30.588 152.656 L 30.588 151.12 L 28.5 151.12 L 28.5 146.128 L 31.836 146.128 L 31.836 146.128 Z  M 35.052 141.544 L 35.052 141.544 L 35.052 141.544 Q 35.052 143.008 34.188 143.836 L 34.188 143.836 L 34.188 143.836 Q 33.324 144.664 31.332 144.664 L 31.332 144.664 L 28.5 144.664 L 28.5 138.592 L 31.284 138.592 L 31.284 138.592 Q 33.276 138.592 34.164 139.3 L 34.164 139.3 L 34.164 139.3 Q 35.052 140.008 35.052 141.544 Z  M 56.196 157.768 L 38.22 157.768 L 38.22 130.648 L 56.196 130.648 L 56.196 157.768 L 56.196 157.768 Z  M 55.02 144.856 L 55.02 144.856 L 55.02 144.856 Q 55.02 141.52 52.86 139.168 L 52.86 139.168 L 52.86 139.168 Q 50.7 136.816 47.196 136.816 L 47.196 136.816 L 47.196 136.816 Q 43.74 136.816 41.568 139.156 L 41.568 139.156 L 41.568 139.156 Q 39.396 141.496 39.396 144.856 L 39.396 144.856 L 39.396 144.856 Q 39.396 148.168 41.508 150.532 L 41.508 150.532 L 41.508 150.532 Q 43.62 152.896 47.148 152.896 L 47.148 152.896 L 47.148 152.896 Q 49.5 152.896 51.276 151.804 L 51.276 151.804 L 51.276 151.804 Q 53.052 150.712 54.036 148.888 L 54.036 148.888 L 54.036 148.888 Q 55.02 147.064 55.02 144.856 Z  M 53.124 144.88 L 53.124 144.88 L 53.124 144.88 Q 53.124 147.592 51.564 149.452 L 51.564 149.452 L 51.564 149.452 Q 50.004 151.312 47.244 151.312 L 47.244 151.312 L 47.244 151.312 Q 44.412 151.312 42.852 149.392 L 42.852 149.392 L 42.852 149.392 Q 41.292 147.472 41.292 144.832 L 41.292 144.832 L 41.292 144.832 Q 41.292 142.144 42.852 140.272 L 42.852 140.272 L 42.852 140.272 Q 44.412 138.4 47.196 138.4 L 47.196 138.4 L 47.196 138.4 Q 49.908 138.4 51.516 140.236 L 51.516 140.236 L 51.516 140.236 Q 53.124 142.072 53.124 144.88 Z  M 73.788 157.768 L 55.62 157.768 L 55.62 130.648 L 73.788 130.648 L 73.788 157.768 L 73.788 157.768 Z  M 70.788 152.656 L 70.788 138.592 L 72.732 138.592 L 72.732 137.056 L 66.756 137.056 L 66.756 138.592 L 69.108 138.592 L 69.108 149.08 L 69.012 149.08 L 60.132 137.056 L 56.772 137.056 L 56.772 138.592 L 58.836 138.592 L 58.836 151.12 L 57.036 151.12 L 57.036 152.656 L 62.988 152.656 L 62.988 151.12 L 60.516 151.12 L 60.516 140.368 L 60.612 140.368 L 69.66 152.656 L 70.788 152.656 L 70.788 152.656 Z  M 87.42 157.768 L 73.212 157.768 L 73.212 130.648 L 87.42 130.648 L 87.42 157.768 L 87.42 157.768 Z  M 84.66 138.592 L 85.14 141.928 L 86.7 141.808 L 86.22 137.056 L 74.412 137.056 L 73.956 141.808 L 75.492 141.928 L 75.972 138.592 L 79.428 138.592 L 79.428 151.12 L 76.74 151.12 L 76.74 152.656 L 83.94 152.656 L 83.94 151.12 L 81.18 151.12 L 81.18 138.592 L 84.66 138.592 L 84.66 138.592 Z  M 101.436 157.768 L 86.844 157.768 L 86.844 130.648 L 101.436 130.648 L 101.436 157.768 L 101.436 157.768 Z  M 88.092 151.12 L 88.092 152.656 L 99.708 152.656 L 100.164 148.24 L 98.652 148.072 L 98.172 151.12 L 91.812 151.12 L 91.812 145.504 L 99.18 145.504 L 99.18 143.968 L 91.812 143.968 L 91.812 138.592 L 97.956 138.592 L 98.436 141.64 L 99.972 141.472 L 99.492 137.056 L 88.092 137.056 L 88.092 138.592 L 90.06 138.592 L 90.06 151.12 L 88.092 151.12 L 88.092 151.12 Z  M 119.028 157.768 L 100.86 157.768 L 100.86 130.648 L 119.028 130.648 L 119.028 157.768 L 119.028 157.768 Z  M 116.028 152.656 L 116.028 138.592 L 117.972 138.592 L 117.972 137.056 L 111.996 137.056 L 111.996 138.592 L 114.348 138.592 L 114.348 149.08 L 114.252 149.08 L 105.372 137.056 L 102.012 137.056 L 102.012 138.592 L 104.076 138.592 L 104.076 151.12 L 102.276 151.12 L 102.276 152.656 L 108.228 152.656 L 108.228 151.12 L 105.756 151.12 L 105.756 140.368 L 105.852 140.368 L 114.9 152.656 L 116.028 152.656 L 116.028 152.656 Z  M 135.756 157.768 L 118.356 157.768 L 118.356 130.648 L 135.756 130.648 L 135.756 157.768 L 135.756 157.768 Z  M 134.556 144.832 L 134.556 144.832 L 134.556 144.832 Q 134.556 141.448 132.48 139.252 L 132.48 139.252 L 132.48 139.252 Q 130.404 137.056 126.588 137.056 L 126.588 137.056 L 120.084 137.056 L 120.084 138.568 L 122.052 138.568 L 122.052 151.144 L 120.084 151.144 L 120.084 152.656 L 126.66 152.656 L 126.66 152.656 Q 130.356 152.656 132.456 150.46 L 132.456 150.46 L 132.456 150.46 Q 134.556 148.264 134.556 144.832 Z  M 132.684 144.856 L 132.684 144.856 L 132.684 144.856 Q 132.684 147.76 131.112 149.452 L 131.112 149.452 L 131.112 149.452 Q 129.54 151.144 126.564 151.144 L 126.564 151.144 L 123.804 151.144 L 123.804 138.568 L 126.564 138.568 L 126.564 138.568 Q 129.54 138.568 131.112 140.296 L 131.112 140.296 L 131.112 140.296 Q 132.684 142.024 132.684 144.856 Z  M 152.484 157.768 L 135.084 157.768 L 135.084 130.648 L 152.484 130.648 L 152.484 157.768 L 152.484 157.768 Z  M 151.284 144.832 L 151.284 144.832 L 151.284 144.832 Q 151.284 141.448 149.208 139.252 L 149.208 139.252 L 149.208 139.252 Q 147.132 137.056 143.316 137.056 L 143.316 137.056 L 136.812 137.056 L 136.812 138.568 L 138.78 138.568 L 138.78 151.144 L 136.812 151.144 L 136.812 152.656 L 143.388 152.656 L 143.388 152.656 Q 147.084 152.656 149.184 150.46 L 149.184 150.46 L 149.184 150.46 Q 151.284 148.264 151.284 144.832 Z  M 149.412 144.856 L 149.412 144.856 L 149.412 144.856 Q 149.412 147.76 147.84 149.452 L 147.84 149.452 L 147.84 149.452 Q 146.268 151.144 143.292 151.144 L 143.292 151.144 L 140.532 151.144 L 140.532 138.568 L 143.292 138.568 L 143.292 138.568 Q 146.268 138.568 147.84 140.296 L 147.84 140.296 L 147.84 140.296 Q 149.412 142.024 149.412 144.856 Z  M 166.5 157.768 L 151.908 157.768 L 151.908 130.648 L 166.5 130.648 L 166.5 157.768 L 166.5 157.768 Z  M 153.156 151.12 L 153.156 152.656 L 164.772 152.656 L 165.228 148.24 L 163.716 148.072 L 163.236 151.12 L 156.876 151.12 L 156.876 145.504 L 164.244 145.504 L 164.244 143.968 L 156.876 143.968 L 156.876 138.592 L 163.02 138.592 L 163.5 141.64 L 165.036 141.472 L 164.556 137.056 L 153.156 137.056 L 153.156 138.592 L 155.124 138.592 L 155.124 151.12 L 153.156 151.12 L 153.156 151.12 Z  M 169.548 138.592 L 171.732 138.592 L 171.732 137.056 L 165.924 137.056 L 165.924 130.648 L 181.044 130.648 L 181.044 137.056 L 175.332 137.056 L 175.332 138.592 L 177.54 138.592 L 173.652 150.064 L 173.532 150.064 L 169.548 138.592 L 169.548 138.592 Z  M 181.044 138.592 L 181.044 157.768 L 165.924 157.768 L 165.924 138.592 L 167.628 138.592 L 172.788 152.656 L 174.18 152.656 L 179.34 138.592 L 181.044 138.592 L 181.044 138.592 Z  M 195.06 157.768 L 180.468 157.768 L 180.468 130.648 L 195.06 130.648 L 195.06 157.768 L 195.06 157.768 Z  M 181.716 151.12 L 181.716 152.656 L 193.332 152.656 L 193.788 148.24 L 192.276 148.072 L 191.796 151.12 L 185.436 151.12 L 185.436 145.504 L 192.804 145.504 L 192.804 143.968 L 185.436 143.968 L 185.436 138.592 L 191.58 138.592 L 192.06 141.64 L 193.596 141.472 L 193.116 137.056 L 181.716 137.056 L 181.716 138.592 L 183.684 138.592 L 183.684 151.12 L 181.716 151.12 L 181.716 151.12 Z  M 208.02 157.768 L 194.484 157.768 L 194.484 130.648 L 208.02 130.648 L 208.02 157.768 L 208.02 157.768 Z  M 195.732 151.12 L 195.732 152.656 L 206.748 152.656 L 207.228 147.664 L 205.668 147.544 L 205.188 151.12 L 199.452 151.12 L 199.452 138.592 L 202.068 138.592 L 202.068 137.056 L 195.732 137.056 L 195.732 138.592 L 197.7 138.592 L 197.7 151.12 L 195.732 151.12 L 195.732 151.12 Z  M 225.42 157.768 L 207.444 157.768 L 207.444 130.648 L 225.42 130.648 L 225.42 157.768 L 225.42 157.768 Z  M 224.244 144.856 L 224.244 144.856 L 224.244 144.856 Q 224.244 141.52 222.084 139.168 L 222.084 139.168 L 222.084 139.168 Q 219.924 136.816 216.42 136.816 L 216.42 136.816 L 216.42 136.816 Q 212.964 136.816 210.792 139.156 L 210.792 139.156 L 210.792 139.156 Q 208.62 141.496 208.62 144.856 L 208.62 144.856 L 208.62 144.856 Q 208.62 148.168 210.732 150.532 L 210.732 150.532 L 210.732 150.532 Q 212.844 152.896 216.372 152.896 L 216.372 152.896 L 216.372 152.896 Q 218.724 152.896 220.5 151.804 L 220.5 151.804 L 220.5 151.804 Q 222.276 150.712 223.26 148.888 L 223.26 148.888 L 223.26 148.888 Q 224.244 147.064 224.244 144.856 Z  M 222.348 144.88 L 222.348 144.88 L 222.348 144.88 Q 222.348 147.592 220.788 149.452 L 220.788 149.452 L 220.788 149.452 Q 219.228 151.312 216.468 151.312 L 216.468 151.312 L 216.468 151.312 Q 213.636 151.312 212.076 149.392 L 212.076 149.392 L 212.076 149.392 Q 210.516 147.472 210.516 144.832 L 210.516 144.832 L 210.516 144.832 Q 210.516 142.144 212.076 140.272 L 212.076 140.272 L 212.076 140.272 Q 213.636 138.4 216.42 138.4 L 216.42 138.4 L 216.42 138.4 Q 219.132 138.4 220.74 140.236 L 220.74 140.236 L 220.74 140.236 Q 222.348 142.072 222.348 144.88 Z  M 239.1 157.768 L 224.844 157.768 L 224.844 130.648 L 239.1 130.648 L 239.1 157.768 L 239.1 157.768 Z  M 238.14 141.832 L 238.14 141.832 L 238.14 141.832 Q 238.14 139.888 236.88 138.472 L 236.88 138.472 L 236.88 138.472 Q 235.62 137.056 232.716 137.056 L 232.716 137.056 L 226.092 137.056 L 226.092 138.592 L 228.06 138.592 L 228.06 151.12 L 226.092 151.12 L 226.092 152.656 L 232.5 152.656 L 232.5 151.12 L 229.812 151.12 L 229.812 146.848 L 232.86 146.848 L 232.86 146.848 Q 235.164 146.848 236.652 145.564 L 236.652 145.564 L 236.652 145.564 Q 238.14 144.28 238.14 141.832 Z  M 236.268 141.88 L 236.268 141.88 L 236.268 141.88 Q 236.268 145.312 232.644 145.312 L 232.644 145.312 L 229.812 145.312 L 229.812 138.592 L 232.572 138.592 L 232.572 138.592 Q 234.492 138.592 235.38 139.48 L 235.38 139.48 L 235.38 139.48 Q 236.268 140.368 236.268 141.88 Z  M 253.116 157.768 L 238.524 157.768 L 238.524 130.648 L 253.116 130.648 L 253.116 157.768 L 253.116 157.768 Z  M 239.772 151.12 L 239.772 152.656 L 251.388 152.656 L 251.844 148.24 L 250.332 148.072 L 249.852 151.12 L 243.492 151.12 L 243.492 145.504 L 250.86 145.504 L 250.86 143.968 L 243.492 143.968 L 243.492 138.592 L 249.636 138.592 L 250.116 141.64 L 251.652 141.472 L 251.172 137.056 L 239.772 137.056 L 239.772 138.592 L 241.74 138.592 L 241.74 151.12 L 239.772 151.12 L 239.772 151.12 Z  M 267.828 157.768 L 252.54 157.768 L 252.54 130.648 L 267.828 130.648 L 267.828 157.768 L 267.828 157.768 Z  M 260.868 146.128 L 264.228 152.656 L 267.348 152.656 L 267.348 151.12 L 265.38 151.12 L 262.596 145.792 L 262.596 145.792 Q 264.252 145.36 265.092 144.172 L 265.092 144.172 L 265.092 144.172 Q 265.932 142.984 265.932 141.472 L 265.932 141.472 L 265.932 141.472 Q 265.932 139.576 264.684 138.316 L 264.684 138.316 L 264.684 138.316 Q 263.436 137.056 260.532 137.056 L 260.532 137.056 L 253.788 137.056 L 253.788 138.592 L 255.756 138.592 L 255.756 151.12 L 253.788 151.12 L 253.788 152.656 L 259.62 152.656 L 259.62 151.12 L 257.532 151.12 L 257.532 146.128 L 260.868 146.128 L 260.868 146.128 Z  M 264.084 141.544 L 264.084 141.544 L 264.084 141.544 Q 264.084 143.008 263.22 143.836 L 263.22 143.836 L 263.22 143.836 Q 262.356 144.664 260.364 144.664 L 260.364 144.664 L 257.532 144.664 L 257.532 138.592 L 260.316 138.592 L 260.316 138.592 Q 262.308 138.592 263.196 139.3 L 263.196 139.3 L 263.196 139.3 Q 264.084 140.008 264.084 141.544 Z  M 275.868 157.768 L 267.252 157.768 L 267.252 130.648 L 275.868 130.648 L 275.868 157.768 L 275.868 157.768 Z  M 269.916 152.656 L 275.076 136.144 L 273.42 136.144 L 268.26 152.656 L 269.916 152.656 L 269.916 152.656 Z  M 289.884 157.768 L 275.292 157.768 L 275.292 130.648 L 289.884 130.648 L 289.884 157.768 L 289.884 157.768 Z  M 276.54 151.12 L 276.54 152.656 L 288.156 152.656 L 288.612 148.24 L 287.1 148.072 L 286.62 151.12 L 280.26 151.12 L 280.26 145.504 L 287.628 145.504 L 287.628 143.968 L 280.26 143.968 L 280.26 138.592 L 286.404 138.592 L 286.884 141.64 L 288.42 141.472 L 287.94 137.056 L 276.54 137.056 L 276.54 138.592 L 278.508 138.592 L 278.508 151.12 L 276.54 151.12 L 276.54 151.12 Z  M 304.98 157.768 L 289.308 157.768 L 289.308 130.648 L 304.98 130.648 L 304.98 157.768 L 304.98 157.768 Z  M 299.1 151.12 L 299.1 152.656 L 304.548 152.656 L 304.548 151.12 L 303.06 151.12 L 298.044 144.568 L 302.58 138.592 L 304.308 138.592 L 304.308 137.056 L 299.028 137.056 L 299.028 138.592 L 300.612 138.592 L 297.156 143.392 L 293.532 138.592 L 295.284 138.592 L 295.284 137.056 L 289.956 137.056 L 289.956 138.592 L 291.516 138.592 L 296.148 144.592 L 291.3 151.12 L 289.692 151.12 L 289.692 152.656 L 295.068 152.656 L 295.068 151.12 L 293.22 151.12 L 297.036 145.792 L 301.02 151.12 L 299.1 151.12 L 299.1 151.12 Z  M 318.66 157.768 L 304.404 157.768 L 304.404 130.648 L 318.66 130.648 L 318.66 157.768 L 318.66 157.768 Z  M 317.7 141.832 L 317.7 141.832 L 317.7 141.832 Q 317.7 139.888 316.44 138.472 L 316.44 138.472 L 316.44 138.472 Q 315.18 137.056 312.276 137.056 L 312.276 137.056 L 305.652 137.056 L 305.652 138.592 L 307.62 138.592 L 307.62 151.12 L 305.652 151.12 L 305.652 152.656 L 312.06 152.656 L 312.06 151.12 L 309.372 151.12 L 309.372 146.848 L 312.42 146.848 L 312.42 146.848 Q 314.724 146.848 316.212 145.564 L 316.212 145.564 L 316.212 145.564 Q 317.7 144.28 317.7 141.832 Z  M 315.828 141.88 L 315.828 141.88 L 315.828 141.88 Q 315.828 145.312 312.204 145.312 L 312.204 145.312 L 309.372 145.312 L 309.372 138.592 L 312.132 138.592 L 312.132 138.592 Q 314.052 138.592 314.94 139.48 L 314.94 139.48 L 314.94 139.48 Q 315.828 140.368 315.828 141.88 Z  M 332.676 157.768 L 318.084 157.768 L 318.084 130.648 L 332.676 130.648 L 332.676 157.768 L 332.676 157.768 Z  M 319.332 151.12 L 319.332 152.656 L 330.948 152.656 L 331.404 148.24 L 329.892 148.072 L 329.412 151.12 L 323.052 151.12 L 323.052 145.504 L 330.42 145.504 L 330.42 143.968 L 323.052 143.968 L 323.052 138.592 L 329.196 138.592 L 329.676 141.64 L 331.212 141.472 L 330.732 137.056 L 319.332 137.056 L 319.332 138.592 L 321.3 138.592 L 321.3 151.12 L 319.332 151.12 L 319.332 151.12 Z  M 347.388 157.768 L 332.1 157.768 L 332.1 130.648 L 347.388 130.648 L 347.388 157.768 L 347.388 157.768 Z  M 340.428 146.128 L 343.788 152.656 L 346.908 152.656 L 346.908 151.12 L 344.94 151.12 L 342.156 145.792 L 342.156 145.792 Q 343.812 145.36 344.652 144.172 L 344.652 144.172 L 344.652 144.172 Q 345.492 142.984 345.492 141.472 L 345.492 141.472 L 345.492 141.472 Q 345.492 139.576 344.244 138.316 L 344.244 138.316 L 344.244 138.316 Q 342.996 137.056 340.092 137.056 L 340.092 137.056 L 333.348 137.056 L 333.348 138.592 L 335.316 138.592 L 335.316 151.12 L 333.348 151.12 L 333.348 152.656 L 339.18 152.656 L 339.18 151.12 L 337.092 151.12 L 337.092 146.128 L 340.428 146.128 L 340.428 146.128 Z  M 343.644 141.544 L 343.644 141.544 L 343.644 141.544 Q 343.644 143.008 342.78 143.836 L 342.78 143.836 L 342.78 143.836 Q 341.916 144.664 339.924 144.664 L 339.924 144.664 L 337.092 144.664 L 337.092 138.592 L 339.876 138.592 L 339.876 138.592 Q 341.868 138.592 342.756 139.3 L 342.756 139.3 L 342.756 139.3 Q 343.644 140.008 343.644 141.544 Z  M 355.02 157.768 L 346.812 157.768 L 346.812 130.648 L 355.02 130.648 L 355.02 157.768 L 355.02 157.768 Z  M 348.06 151.12 L 348.06 152.656 L 353.748 152.656 L 353.748 151.12 L 351.804 151.12 L 351.804 138.592 L 353.748 138.592 L 353.748 137.056 L 348.06 137.056 L 348.06 138.592 L 350.028 138.592 L 350.028 151.12 L 348.06 151.12 L 348.06 151.12 Z  M 369.036 157.768 L 354.444 157.768 L 354.444 130.648 L 369.036 130.648 L 369.036 157.768 L 369.036 157.768 Z  M 355.692 151.12 L 355.692 152.656 L 367.308 152.656 L 367.764 148.24 L 366.252 148.072 L 365.772 151.12 L 359.412 151.12 L 359.412 145.504 L 366.78 145.504 L 366.78 143.968 L 359.412 143.968 L 359.412 138.592 L 365.556 138.592 L 366.036 141.64 L 367.572 141.472 L 367.092 137.056 L 355.692 137.056 L 355.692 138.592 L 357.66 138.592 L 357.66 151.12 L 355.692 151.12 L 355.692 151.12 Z  M 386.628 157.768 L 368.46 157.768 L 368.46 130.648 L 386.628 130.648 L 386.628 157.768 L 386.628 157.768 Z  M 383.628 152.656 L 383.628 138.592 L 385.572 138.592 L 385.572 137.056 L 379.596 137.056 L 379.596 138.592 L 381.948 138.592 L 381.948 149.08 L 381.852 149.08 L 372.972 137.056 L 369.612 137.056 L 369.612 138.592 L 371.676 138.592 L 371.676 151.12 L 369.876 151.12 L 369.876 152.656 L 375.828 152.656 L 375.828 151.12 L 373.356 151.12 L 373.356 140.368 L 373.452 140.368 L 382.5 152.656 L 383.628 152.656 L 383.628 152.656 Z  M 402.036 157.768 L 386.052 157.768 L 386.052 130.648 L 402.036 130.648 L 402.036 157.768 L 402.036 157.768 Z  M 400.092 151.456 L 400.092 151.456 L 400.5 148.456 L 399.012 148.312 L 398.556 150.616 L 398.556 150.616 Q 397.164 151.312 395.124 151.312 L 395.124 151.312 L 395.124 151.312 Q 392.34 151.312 390.72 149.548 L 390.72 149.548 L 390.72 149.548 Q 389.1 147.784 389.1 144.88 L 389.1 144.88 L 389.1 144.88 Q 389.1 142.048 390.672 140.224 L 390.672 140.224 L 390.672 140.224 Q 392.244 138.4 394.812 138.4 L 394.812 138.4 L 394.812 138.4 Q 396.132 138.4 397.02 138.7 L 397.02 138.7 L 397.02 138.7 Q 397.908 139 398.676 139.504 L 398.676 139.504 L 399.108 141.784 L 400.62 141.64 L 400.188 138.64 L 400.188 138.64 Q 399.228 137.824 397.92 137.32 L 397.92 137.32 L 397.92 137.32 Q 396.612 136.816 394.668 136.816 L 394.668 136.816 L 394.668 136.816 Q 392.388 136.816 390.732 137.944 L 390.732 137.944 L 390.732 137.944 Q 389.076 139.072 388.164 140.932 L 388.164 140.932 L 388.164 140.932 Q 387.252 142.792 387.252 144.952 L 387.252 144.952 L 387.252 144.952 Q 387.252 148.36 389.364 150.628 L 389.364 150.628 L 389.364 150.628 Q 391.476 152.896 394.884 152.896 L 394.884 152.896 L 394.884 152.896 Q 398.22 152.896 400.092 151.456 Z  M 416.052 157.768 L 401.46 157.768 L 401.46 130.648 L 416.052 130.648 L 416.052 157.768 L 416.052 157.768 Z  M 402.708 151.12 L 402.708 152.656 L 414.324 152.656 L 414.78 148.24 L 413.268 148.072 L 412.788 151.12 L 406.428 151.12 L 406.428 145.504 L 413.796 145.504 L 413.796 143.968 L 406.428 143.968 L 406.428 138.592 L 412.572 138.592 L 413.052 141.64 L 414.588 141.472 L 414.108 137.056 L 402.708 137.056 L 402.708 138.592 L 404.676 138.592 L 404.676 151.12 L 402.708 151.12 L 402.708 151.12 Z  M 432.78 157.768 L 415.38 157.768 L 415.38 130.648 L 432.78 130.648 L 432.78 157.768 L 432.78 157.768 Z  M 431.58 144.832 L 431.58 144.832 L 431.58 144.832 Q 431.58 141.448 429.504 139.252 L 429.504 139.252 L 429.504 139.252 Q 427.428 137.056 423.612 137.056 L 423.612 137.056 L 417.108 137.056 L 417.108 138.568 L 419.076 138.568 L 419.076 151.144 L 417.108 151.144 L 417.108 152.656 L 423.684 152.656 L 423.684 152.656 Q 427.38 152.656 429.48 150.46 L 429.48 150.46 L 429.48 150.46 Q 431.58 148.264 431.58 144.832 Z  M 429.708 144.856 L 429.708 144.856 L 429.708 144.856 Q 429.708 147.76 428.136 149.452 L 428.136 149.452 L 428.136 149.452 Q 426.564 151.144 423.588 151.144 L 423.588 151.144 L 420.828 151.144 L 420.828 138.568 L 423.588 138.568 L 423.588 138.568 Q 426.564 138.568 428.136 140.296 L 428.136 140.296 L 428.136 140.296 Q 429.708 142.024 429.708 144.856 Z  M 446.796 157.768 L 432.204 157.768 L 432.204 130.648 L 446.796 130.648 L 446.796 157.768 L 446.796 157.768 Z  M 433.452 151.12 L 433.452 152.656 L 445.068 152.656 L 445.524 148.24 L 444.012 148.072 L 443.532 151.12 L 437.172 151.12 L 437.172 145.504 L 444.54 145.504 L 444.54 143.968 L 437.172 143.968 L 437.172 138.592 L 443.316 138.592 L 443.796 141.64 L 445.332 141.472 L 444.852 137.056 L 433.452 137.056 L 433.452 138.592 L 435.42 138.592 L 435.42 151.12 L 433.452 151.12 L 433.452 151.12 Z  M 449.844 138.592 L 452.028 138.592 L 452.028 137.056 L 446.22 137.056 L 446.22 130.648 L 461.34 130.648 L 461.34 137.056 L 455.628 137.056 L 455.628 138.592 L 457.836 138.592 L 453.948 150.064 L 453.828 150.064 L 449.844 138.592 L 449.844 138.592 Z  M 461.34 138.592 L 461.34 157.768 L 446.22 157.768 L 446.22 138.592 L 447.924 138.592 L 453.084 152.656 L 454.476 152.656 L 459.636 138.592 L 461.34 138.592 L 461.34 138.592 Z  M 475.356 157.768 L 460.764 157.768 L 460.764 130.648 L 475.356 130.648 L 475.356 157.768 L 475.356 157.768 Z  M 462.012 151.12 L 462.012 152.656 L 473.628 152.656 L 474.084 148.24 L 472.572 148.072 L 472.092 151.12 L 465.732 151.12 L 465.732 145.504 L 473.1 145.504 L 473.1 143.968 L 465.732 143.968 L 465.732 138.592 L 471.876 138.592 L 472.356 141.64 L 473.892 141.472 L 473.412 137.056 L 462.012 137.056 L 462.012 138.592 L 463.98 138.592 L 463.98 151.12 L 462.012 151.12 L 462.012 151.12 Z  M 488.316 157.768 L 474.78 157.768 L 474.78 130.648 L 488.316 130.648 L 488.316 157.768 L 488.316 157.768 Z  M 476.028 151.12 L 476.028 152.656 L 487.044 152.656 L 487.524 147.664 L 485.964 147.544 L 485.484 151.12 L 479.748 151.12 L 479.748 138.592 L 482.364 138.592 L 482.364 137.056 L 476.028 137.056 L 476.028 138.592 L 477.996 138.592 L 477.996 151.12 L 476.028 151.12 L 476.028 151.12 Z  M 505.716 157.768 L 487.74 157.768 L 487.74 130.648 L 505.716 130.648 L 505.716 157.768 L 505.716 157.768 Z  M 504.54 144.856 L 504.54 144.856 L 504.54 144.856 Q 504.54 141.52 502.38 139.168 L 502.38 139.168 L 502.38 139.168 Q 500.22 136.816 496.716 136.816 L 496.716 136.816 L 496.716 136.816 Q 493.26 136.816 491.088 139.156 L 491.088 139.156 L 491.088 139.156 Q 488.916 141.496 488.916 144.856 L 488.916 144.856 L 488.916 144.856 Q 488.916 148.168 491.028 150.532 L 491.028 150.532 L 491.028 150.532 Q 493.14 152.896 496.668 152.896 L 496.668 152.896 L 496.668 152.896 Q 499.02 152.896 500.796 151.804 L 500.796 151.804 L 500.796 151.804 Q 502.572 150.712 503.556 148.888 L 503.556 148.888 L 503.556 148.888 Q 504.54 147.064 504.54 144.856 Z  M 502.644 144.88 L 502.644 144.88 L 502.644 144.88 Q 502.644 147.592 501.084 149.452 L 501.084 149.452 L 501.084 149.452 Q 499.524 151.312 496.764 151.312 L 496.764 151.312 L 496.764 151.312 Q 493.932 151.312 492.372 149.392 L 492.372 149.392 L 492.372 149.392 Q 490.812 147.472 490.812 144.832 L 490.812 144.832 L 490.812 144.832 Q 490.812 142.144 492.372 140.272 L 492.372 140.272 L 492.372 140.272 Q 493.932 138.4 496.716 138.4 L 496.716 138.4 L 496.716 138.4 Q 499.428 138.4 501.036 140.236 L 501.036 140.236 L 501.036 140.236 Q 502.644 142.072 502.644 144.88 Z  M 519.396 157.768 L 505.14 157.768 L 505.14 130.648 L 519.396 130.648 L 519.396 157.768 L 519.396 157.768 Z  M 518.436 141.832 L 518.436 141.832 L 518.436 141.832 Q 518.436 139.888 517.176 138.472 L 517.176 138.472 L 517.176 138.472 Q 515.916 137.056 513.012 137.056 L 513.012 137.056 L 506.388 137.056 L 506.388 138.592 L 508.356 138.592 L 508.356 151.12 L 506.388 151.12 L 506.388 152.656 L 512.796 152.656 L 512.796 151.12 L 510.108 151.12 L 510.108 146.848 L 513.156 146.848 L 513.156 146.848 Q 515.46 146.848 516.948 145.564 L 516.948 145.564 L 516.948 145.564 Q 518.436 144.28 518.436 141.832 Z  M 516.564 141.88 L 516.564 141.88 L 516.564 141.88 Q 516.564 145.312 512.94 145.312 L 512.94 145.312 L 510.108 145.312 L 510.108 138.592 L 512.868 138.592 L 512.868 138.592 Q 514.788 138.592 515.676 139.48 L 515.676 139.48 L 515.676 139.48 Q 516.564 140.368 516.564 141.88 Z  M 533.412 157.768 L 518.82 157.768 L 518.82 130.648 L 533.412 130.648 L 533.412 157.768 L 533.412 157.768 Z  M 520.068 151.12 L 520.068 152.656 L 531.684 152.656 L 532.14 148.24 L 530.628 148.072 L 530.148 151.12 L 523.788 151.12 L 523.788 145.504 L 531.156 145.504 L 531.156 143.968 L 523.788 143.968 L 523.788 138.592 L 529.932 138.592 L 530.412 141.64 L 531.948 141.472 L 531.468 137.056 L 520.068 137.056 L 520.068 138.592 L 522.036 138.592 L 522.036 151.12 L 520.068 151.12 L 520.068 151.12 Z  M 548.124 157.768 L 532.836 157.768 L 532.836 130.648 L 548.124 130.648 L 548.124 157.768 L 548.124 157.768 Z  M 541.164 146.128 L 544.524 152.656 L 547.644 152.656 L 547.644 151.12 L 545.676 151.12 L 542.892 145.792 L 542.892 145.792 Q 544.548 145.36 545.388 144.172 L 545.388 144.172 L 545.388 144.172 Q 546.228 142.984 546.228 141.472 L 546.228 141.472 L 546.228 141.472 Q 546.228 139.576 544.98 138.316 L 544.98 138.316 L 544.98 138.316 Q 543.732 137.056 540.828 137.056 L 540.828 137.056 L 534.084 137.056 L 534.084 138.592 L 536.052 138.592 L 536.052 151.12 L 534.084 151.12 L 534.084 152.656 L 539.916 152.656 L 539.916 151.12 L 537.828 151.12 L 537.828 146.128 L 541.164 146.128 L 541.164 146.128 Z  M 544.38 141.544 L 544.38 141.544 L 544.38 141.544 Q 544.38 143.008 543.516 143.836 L 543.516 143.836 L 543.516 143.836 Q 542.652 144.664 540.66 144.664 L 540.66 144.664 L 537.828 144.664 L 537.828 138.592 L 540.612 138.592 L 540.612 138.592 Q 542.604 138.592 543.492 139.3 L 543.492 139.3 L 543.492 139.3 Q 544.38 140.008 544.38 141.544 Z " fill="rgb(14,113,155)"/><path d=" M 50.25 128.734 L 10.756 128.734 L 10.756 58.674 L 50.25 58.674 L 50.25 128.734 L 50.25 128.734 Z  M 32.27 98.664 L 40.95 115.528 L 49.01 115.528 L 49.01 111.56 L 43.926 111.56 L 36.734 97.796 L 36.734 97.796 Q 41.012 96.68 43.182 93.611 L 43.182 93.611 L 43.182 93.611 Q 45.352 90.542 45.352 86.636 L 45.352 86.636 L 45.352 86.636 Q 45.352 81.738 42.128 78.483 L 42.128 78.483 L 42.128 78.483 Q 38.904 75.228 31.402 75.228 L 31.402 75.228 L 13.98 75.228 L 13.98 79.196 L 19.064 79.196 L 19.064 111.56 L 13.98 111.56 L 13.98 115.528 L 29.046 115.528 L 29.046 111.56 L 23.652 111.56 L 23.652 98.664 L 32.27 98.664 L 32.27 98.664 Z  M 40.578 86.822 L 40.578 86.822 L 40.578 86.822 Q 40.578 90.604 38.346 92.743 L 38.346 92.743 L 38.346 92.743 Q 36.114 94.882 30.968 94.882 L 30.968 94.882 L 23.652 94.882 L 23.652 79.196 L 30.844 79.196 L 30.844 79.196 Q 35.99 79.196 38.284 81.025 L 38.284 81.025 L 38.284 81.025 Q 40.578 82.854 40.578 86.822 Z  M 95.2 128.734 L 48.762 128.734 L 48.762 58.674 L 95.2 58.674 L 95.2 128.734 L 95.2 128.734 Z  M 92.162 95.378 L 92.162 95.378 L 92.162 95.378 Q 92.162 86.76 86.582 80.684 L 86.582 80.684 L 86.582 80.684 Q 81.002 74.608 71.95 74.608 L 71.95 74.608 L 71.95 74.608 Q 63.022 74.608 57.411 80.653 L 57.411 80.653 L 57.411 80.653 Q 51.8 86.698 51.8 95.378 L 51.8 95.378 L 51.8 95.378 Q 51.8 103.934 57.256 110.041 L 57.256 110.041 L 57.256 110.041 Q 62.712 116.148 71.826 116.148 L 71.826 116.148 L 71.826 116.148 Q 77.902 116.148 82.49 113.327 L 82.49 113.327 L 82.49 113.327 Q 87.078 110.506 89.62 105.794 L 89.62 105.794 L 89.62 105.794 Q 92.162 101.082 92.162 95.378 Z  M 87.264 95.44 L 87.264 95.44 L 87.264 95.44 Q 87.264 102.446 83.234 107.251 L 83.234 107.251 L 83.234 107.251 Q 79.204 112.056 72.074 112.056 L 72.074 112.056 L 72.074 112.056 Q 64.758 112.056 60.728 107.096 L 60.728 107.096 L 60.728 107.096 Q 56.698 102.136 56.698 95.316 L 56.698 95.316 L 56.698 95.316 Q 56.698 88.372 60.728 83.536 L 60.728 83.536 L 60.728 83.536 Q 64.758 78.7 71.95 78.7 L 71.95 78.7 L 71.95 78.7 Q 78.956 78.7 83.11 83.443 L 83.11 83.443 L 83.11 83.443 Q 87.264 88.186 87.264 95.44 Z  M 127.998 128.734 L 93.712 128.734 L 93.712 58.674 L 127.998 58.674 L 127.998 128.734 L 127.998 128.734 Z  M 124.712 104.244 L 124.712 104.244 L 124.712 104.244 Q 124.712 99.656 122.511 97.331 L 122.511 97.331 L 122.511 97.331 Q 120.31 95.006 117.241 94.045 L 117.241 94.045 L 117.241 94.045 Q 114.172 93.084 111.444 92.464 L 111.444 92.464 L 111.444 92.464 Q 108.034 91.658 105.244 90.356 L 105.244 90.356 L 105.244 90.356 Q 102.454 89.054 102.454 85.272 L 102.454 85.272 L 102.454 85.272 Q 102.454 82.048 104.779 80.343 L 104.779 80.343 L 104.779 80.343 Q 107.104 78.638 110.886 78.638 L 110.886 78.638 L 110.886 78.638 Q 112.684 78.638 114.668 78.979 L 114.668 78.979 L 114.668 78.979 Q 116.652 79.32 118.574 80.312 L 118.574 80.312 L 119.194 86.326 L 122.914 85.954 L 122.542 77.956 L 122.542 77.956 Q 120.62 76.468 117.21 75.538 L 117.21 75.538 L 117.21 75.538 Q 113.8 74.608 110.452 74.608 L 110.452 74.608 L 110.452 74.608 Q 105.244 74.608 101.431 77.336 L 101.431 77.336 L 101.431 77.336 Q 97.618 80.064 97.618 85.768 L 97.618 85.768 L 97.618 85.768 Q 97.618 89.736 99.478 91.813 L 99.478 91.813 L 99.478 91.813 Q 101.338 93.89 104.128 94.851 L 104.128 94.851 L 104.128 94.851 Q 106.918 95.812 109.77 96.432 L 109.77 96.432 L 109.77 96.432 Q 113.49 97.3 116.652 98.695 L 116.652 98.695 L 116.652 98.695 Q 119.814 100.09 119.814 104.678 L 119.814 104.678 L 119.814 104.678 Q 119.814 108.77 116.931 110.475 L 116.931 110.475 L 116.931 110.475 Q 114.048 112.18 110.08 112.18 L 110.08 112.18 L 110.08 112.18 Q 107.848 112.18 105.802 111.808 L 105.802 111.808 L 105.802 111.808 Q 103.756 111.436 101.71 110.382 L 101.71 110.382 L 101.958 105.298 L 98.238 104.926 L 97.37 112.862 L 97.37 112.862 Q 101.896 116.148 110.328 116.148 L 110.328 116.148 L 110.328 116.148 Q 116.466 116.148 120.589 113.11 L 120.589 113.11 L 120.589 113.11 Q 124.712 110.072 124.712 104.244 Z  M 160.796 128.734 L 126.51 128.734 L 126.51 58.674 L 160.796 58.674 L 160.796 128.734 L 160.796 128.734 Z  M 157.51 104.244 L 157.51 104.244 L 157.51 104.244 Q 157.51 99.656 155.309 97.331 L 155.309 97.331 L 155.309 97.331 Q 153.108 95.006 150.039 94.045 L 150.039 94.045 L 150.039 94.045 Q 146.97 93.084 144.242 92.464 L 144.242 92.464 L 144.242 92.464 Q 140.832 91.658 138.042 90.356 L 138.042 90.356 L 138.042 90.356 Q 135.252 89.054 135.252 85.272 L 135.252 85.272 L 135.252 85.272 Q 135.252 82.048 137.577 80.343 L 137.577 80.343 L 137.577 80.343 Q 139.902 78.638 143.684 78.638 L 143.684 78.638 L 143.684 78.638 Q 145.482 78.638 147.466 78.979 L 147.466 78.979 L 147.466 78.979 Q 149.45 79.32 151.372 80.312 L 151.372 80.312 L 151.992 86.326 L 155.712 85.954 L 155.34 77.956 L 155.34 77.956 Q 153.418 76.468 150.008 75.538 L 150.008 75.538 L 150.008 75.538 Q 146.598 74.608 143.25 74.608 L 143.25 74.608 L 143.25 74.608 Q 138.042 74.608 134.229 77.336 L 134.229 77.336 L 134.229 77.336 Q 130.416 80.064 130.416 85.768 L 130.416 85.768 L 130.416 85.768 Q 130.416 89.736 132.276 91.813 L 132.276 91.813 L 132.276 91.813 Q 134.136 93.89 136.926 94.851 L 136.926 94.851 L 136.926 94.851 Q 139.716 95.812 142.568 96.432 L 142.568 96.432 L 142.568 96.432 Q 146.288 97.3 149.45 98.695 L 149.45 98.695 L 149.45 98.695 Q 152.612 100.09 152.612 104.678 L 152.612 104.678 L 152.612 104.678 Q 152.612 108.77 149.729 110.475 L 149.729 110.475 L 149.729 110.475 Q 146.846 112.18 142.878 112.18 L 142.878 112.18 L 142.878 112.18 Q 140.646 112.18 138.6 111.808 L 138.6 111.808 L 138.6 111.808 Q 136.554 111.436 134.508 110.382 L 134.508 110.382 L 134.756 105.298 L 131.036 104.926 L 130.168 112.862 L 130.168 112.862 Q 134.694 116.148 143.126 116.148 L 143.126 116.148 L 143.126 116.148 Q 149.264 116.148 153.387 113.11 L 153.387 113.11 L 153.387 113.11 Q 157.51 110.072 157.51 104.244 Z  M 215.17 128.734 L 159.308 128.734 L 159.308 58.674 L 215.17 58.674 L 215.17 128.734 L 215.17 128.734 Z  M 206.862 111.56 L 206.862 79.196 L 212.132 79.196 L 212.132 75.228 L 202.832 75.228 L 187.58 106.786 L 187.332 106.786 L 171.646 75.228 L 162.408 75.228 L 162.408 79.196 L 167.678 79.196 L 167.678 111.56 L 162.594 111.56 L 162.594 115.528 L 176.854 115.528 L 176.854 111.56 L 172.018 111.56 L 172.018 85.706 L 172.266 85.706 L 186.092 113.482 L 188.51 113.482 L 202.026 85.892 L 202.274 85.892 L 202.274 111.56 L 197.562 111.56 L 197.562 115.528 L 211.884 115.528 L 211.884 111.56 L 206.862 111.56 L 206.862 111.56 Z  M 254.974 128.734 L 213.682 128.734 L 213.682 58.674 L 254.974 58.674 L 254.974 128.734 L 254.974 128.734 Z  M 249.952 112.428 L 249.952 112.428 L 251.006 104.678 L 247.162 104.306 L 245.984 110.258 L 245.984 110.258 Q 242.388 112.056 237.118 112.056 L 237.118 112.056 L 237.118 112.056 Q 229.926 112.056 225.741 107.499 L 225.741 107.499 L 225.741 107.499 Q 221.556 102.942 221.556 95.44 L 221.556 95.44 L 221.556 95.44 Q 221.556 88.124 225.617 83.412 L 225.617 83.412 L 225.617 83.412 Q 229.678 78.7 236.312 78.7 L 236.312 78.7 L 236.312 78.7 Q 239.722 78.7 242.016 79.475 L 242.016 79.475 L 242.016 79.475 Q 244.31 80.25 246.294 81.552 L 246.294 81.552 L 247.41 87.442 L 251.316 87.07 L 250.2 79.32 L 250.2 79.32 Q 247.72 77.212 244.341 75.91 L 244.341 75.91 L 244.341 75.91 Q 240.962 74.608 235.94 74.608 L 235.94 74.608 L 235.94 74.608 Q 230.05 74.608 225.772 77.522 L 225.772 77.522 L 225.772 77.522 Q 221.494 80.436 219.138 85.241 L 219.138 85.241 L 219.138 85.241 Q 216.782 90.046 216.782 95.626 L 216.782 95.626 L 216.782 95.626 Q 216.782 104.43 222.238 110.289 L 222.238 110.289 L 222.238 110.289 Q 227.694 116.148 236.498 116.148 L 236.498 116.148 L 236.498 116.148 Q 245.116 116.148 249.952 112.428 Z  M 298.188 128.734 L 253.238 128.734 L 253.238 58.674 L 298.188 58.674 L 298.188 128.734 L 298.188 128.734 Z  M 295.088 95.316 L 295.088 95.316 L 295.088 95.316 Q 295.088 86.574 289.725 80.901 L 289.725 80.901 L 289.725 80.901 Q 284.362 75.228 274.504 75.228 L 274.504 75.228 L 257.702 75.228 L 257.702 79.134 L 262.786 79.134 L 262.786 111.622 L 257.702 111.622 L 257.702 115.528 L 274.69 115.528 L 274.69 115.528 Q 284.238 115.528 289.663 109.855 L 289.663 109.855 L 289.663 109.855 Q 295.088 104.182 295.088 95.316 Z  M 290.252 95.378 L 290.252 95.378 L 290.252 95.378 Q 290.252 102.88 286.191 107.251 L 286.191 107.251 L 286.191 107.251 Q 282.13 111.622 274.442 111.622 L 274.442 111.622 L 267.312 111.622 L 267.312 79.134 L 274.442 79.134 L 274.442 79.134 Q 282.13 79.134 286.191 83.598 L 286.191 83.598 L 286.191 83.598 Q 290.252 88.062 290.252 95.378 Z  M 334.396 128.734 L 296.7 128.734 L 296.7 58.674 L 334.396 58.674 L 334.396 128.734 L 334.396 128.734 Z  M 299.924 111.56 L 299.924 115.528 L 329.932 115.528 L 331.11 104.12 L 327.204 103.686 L 325.964 111.56 L 309.534 111.56 L 309.534 97.052 L 328.568 97.052 L 328.568 93.084 L 309.534 93.084 L 309.534 79.196 L 325.406 79.196 L 326.646 87.07 L 330.614 86.636 L 329.374 75.228 L 299.924 75.228 L 299.924 79.196 L 305.008 79.196 L 305.008 111.56 L 299.924 111.56 L 299.924 111.56 Z  M 372.402 128.734 L 332.908 128.734 L 332.908 58.674 L 372.402 58.674 L 372.402 128.734 L 372.402 128.734 Z  M 354.422 98.664 L 363.102 115.528 L 371.162 115.528 L 371.162 111.56 L 366.078 111.56 L 358.886 97.796 L 358.886 97.796 Q 363.164 96.68 365.334 93.611 L 365.334 93.611 L 365.334 93.611 Q 367.504 90.542 367.504 86.636 L 367.504 86.636 L 367.504 86.636 Q 367.504 81.738 364.28 78.483 L 364.28 78.483 L 364.28 78.483 Q 361.056 75.228 353.554 75.228 L 353.554 75.228 L 336.132 75.228 L 336.132 79.196 L 341.216 79.196 L 341.216 111.56 L 336.132 111.56 L 336.132 115.528 L 351.198 115.528 L 351.198 111.56 L 345.804 111.56 L 345.804 98.664 L 354.422 98.664 L 354.422 98.664 Z  M 362.73 86.822 L 362.73 86.822 L 362.73 86.822 Q 362.73 90.604 360.498 92.743 L 360.498 92.743 L 360.498 92.743 Q 358.266 94.882 353.12 94.882 L 353.12 94.882 L 345.804 94.882 L 345.804 79.196 L 352.996 79.196 L 352.996 79.196 Q 358.142 79.196 360.436 81.025 L 360.436 81.025 L 360.436 81.025 Q 362.73 82.854 362.73 86.822 Z  M 426.776 128.734 L 370.914 128.734 L 370.914 58.674 L 426.776 58.674 L 426.776 128.734 L 426.776 128.734 Z  M 418.468 111.56 L 418.468 79.196 L 423.738 79.196 L 423.738 75.228 L 414.438 75.228 L 399.186 106.786 L 398.938 106.786 L 383.252 75.228 L 374.014 75.228 L 374.014 79.196 L 379.284 79.196 L 379.284 111.56 L 374.2 111.56 L 374.2 115.528 L 388.46 115.528 L 388.46 111.56 L 383.624 111.56 L 383.624 85.706 L 383.872 85.706 L 397.698 113.482 L 400.116 113.482 L 413.632 85.892 L 413.88 85.892 L 413.88 111.56 L 409.168 111.56 L 409.168 115.528 L 423.49 115.528 L 423.49 111.56 L 418.468 111.56 L 418.468 111.56 Z  M 471.726 128.734 L 425.288 128.734 L 425.288 58.674 L 471.726 58.674 L 471.726 128.734 L 471.726 128.734 Z  M 468.688 95.378 L 468.688 95.378 L 468.688 95.378 Q 468.688 86.76 463.108 80.684 L 463.108 80.684 L 463.108 80.684 Q 457.528 74.608 448.476 74.608 L 448.476 74.608 L 448.476 74.608 Q 439.548 74.608 433.937 80.653 L 433.937 80.653 L 433.937 80.653 Q 428.326 86.698 428.326 95.378 L 428.326 95.378 L 428.326 95.378 Q 428.326 103.934 433.782 110.041 L 433.782 110.041 L 433.782 110.041 Q 439.238 116.148 448.352 116.148 L 448.352 116.148 L 448.352 116.148 Q 454.428 116.148 459.016 113.327 L 459.016 113.327 L 459.016 113.327 Q 463.604 110.506 466.146 105.794 L 466.146 105.794 L 466.146 105.794 Q 468.688 101.082 468.688 95.378 Z  M 463.79 95.44 L 463.79 95.44 L 463.79 95.44 Q 463.79 102.446 459.76 107.251 L 459.76 107.251 L 459.76 107.251 Q 455.73 112.056 448.6 112.056 L 448.6 112.056 L 448.6 112.056 Q 441.284 112.056 437.254 107.096 L 437.254 107.096 L 437.254 107.096 Q 433.224 102.136 433.224 95.316 L 433.224 95.316 L 433.224 95.316 Q 433.224 88.372 437.254 83.536 L 437.254 83.536 L 437.254 83.536 Q 441.284 78.7 448.476 78.7 L 448.476 78.7 L 448.476 78.7 Q 455.482 78.7 459.636 83.443 L 459.636 83.443 L 459.636 83.443 Q 463.79 88.186 463.79 95.44 Z  M 506.942 128.734 L 470.238 128.734 L 470.238 58.674 L 506.942 58.674 L 506.942 128.734 L 506.942 128.734 Z  M 499.812 79.196 L 501.052 87.814 L 505.082 87.504 L 503.842 75.228 L 473.338 75.228 L 472.16 87.504 L 476.128 87.814 L 477.368 79.196 L 486.296 79.196 L 486.296 111.56 L 479.352 111.56 L 479.352 115.528 L 497.952 115.528 L 497.952 111.56 L 490.822 111.56 L 490.822 79.196 L 499.812 79.196 L 499.812 79.196 Z  M 542.158 128.734 L 505.454 128.734 L 505.454 58.674 L 542.158 58.674 L 542.158 128.734 L 542.158 128.734 Z  M 535.028 79.196 L 536.268 87.814 L 540.298 87.504 L 539.058 75.228 L 508.554 75.228 L 507.376 87.504 L 511.344 87.814 L 512.584 79.196 L 521.512 79.196 L 521.512 111.56 L 514.568 111.56 L 514.568 115.528 L 533.168 115.528 L 533.168 111.56 L 526.038 111.56 L 526.038 79.196 L 535.028 79.196 L 535.028 79.196 Z " fill="rgb(14,113,155)"/></g></svg>