<?xml version="1.0" standalone="no"?><!-- Generator: Gravit.io --><svg xmlns="http://www.w3.org/2000/svg" xmlns:xlink="http://www.w3.org/1999/xlink" style="isolation:isolate" viewBox="418.772 4527 330.456 86.4" width="330.456" height="86.4"><path d=" M 467.588 4610.304 L 419.636 4610.304 L 419.636 4528.944 L 467.588 4528.944 L 467.588 4610.304 L 467.588 4610.304 Z  M 461.756 4591.368 L 461.756 4591.368 L 462.98 4582.368 L 458.516 4581.936 L 457.148 4588.848 L 457.148 4588.848 Q 452.972 4590.936 446.852 4590.936 L 446.852 4590.936 L 446.852 4590.936 Q 438.5 4590.936 433.64 4585.644 L 433.64 4585.644 L 433.64 4585.644 Q 428.78 4580.352 428.78 4571.64 L 428.78 4571.64 L 428.78 4571.64 Q 428.78 4563.144 433.496 4557.672 L 433.496 4557.672 L 433.496 4557.672 Q 438.212 4552.2 445.916 4552.2 L 445.916 4552.2 L 445.916 4552.2 Q 449.876 4552.2 452.54 4553.1 L 452.54 4553.1 L 452.54 4553.1 Q 455.204 4554 457.508 4555.512 L 457.508 4555.512 L 458.804 4562.352 L 463.34 4561.92 L 462.044 4552.92 L 462.044 4552.92 Q 459.164 4550.472 455.24 4548.96 L 455.24 4548.96 L 455.24 4548.96 Q 451.316 4547.448 445.484 4547.448 L 445.484 4547.448 L 445.484 4547.448 Q 438.644 4547.448 433.676 4550.832 L 433.676 4550.832 L 433.676 4550.832 Q 428.708 4554.216 425.972 4559.796 L 425.972 4559.796 L 425.972 4559.796 Q 423.236 4565.376 423.236 4571.856 L 423.236 4571.856 L 423.236 4571.856 Q 423.236 4582.08 429.572 4588.884 L 429.572 4588.884 L 429.572 4588.884 Q 435.908 4595.688 446.132 4595.688 L 446.132 4595.688 L 446.132 4595.688 Q 456.14 4595.688 461.756 4591.368 Z  M 519.788 4610.304 L 465.86 4610.304 L 465.86 4528.944 L 519.788 4528.944 L 519.788 4610.304 L 519.788 4610.304 Z  M 516.26 4571.568 L 516.26 4571.568 L 516.26 4571.568 Q 516.26 4561.56 509.78 4554.504 L 509.78 4554.504 L 509.78 4554.504 Q 503.3 4547.448 492.788 4547.448 L 492.788 4547.448 L 492.788 4547.448 Q 482.42 4547.448 475.904 4554.468 L 475.904 4554.468 L 475.904 4554.468 Q 469.388 4561.488 469.388 4571.568 L 469.388 4571.568 L 469.388 4571.568 Q 469.388 4581.504 475.724 4588.596 L 475.724 4588.596 L 475.724 4588.596 Q 482.06 4595.688 492.644 4595.688 L 492.644 4595.688 L 492.644 4595.688 Q 499.7 4595.688 505.028 4592.412 L 505.028 4592.412 L 505.028 4592.412 Q 510.356 4589.136 513.308 4583.664 L 513.308 4583.664 L 513.308 4583.664 Q 516.26 4578.192 516.26 4571.568 Z  M 510.572 4571.64 L 510.572 4571.64 L 510.572 4571.64 Q 510.572 4579.776 505.892 4585.356 L 505.892 4585.356 L 505.892 4585.356 Q 501.212 4590.936 492.932 4590.936 L 492.932 4590.936 L 492.932 4590.936 Q 484.436 4590.936 479.756 4585.176 L 479.756 4585.176 L 479.756 4585.176 Q 475.076 4579.416 475.076 4571.496 L 475.076 4571.496 L 475.076 4571.496 Q 475.076 4563.432 479.756 4557.816 L 479.756 4557.816 L 479.756 4557.816 Q 484.436 4552.2 492.788 4552.2 L 492.788 4552.2 L 492.788 4552.2 Q 500.924 4552.2 505.748 4557.708 L 505.748 4557.708 L 505.748 4557.708 Q 510.572 4563.216 510.572 4571.64 Z  M 572.564 4610.304 L 518.06 4610.304 L 518.06 4528.944 L 572.564 4528.944 L 572.564 4610.304 L 572.564 4610.304 Z  M 563.564 4594.968 L 563.564 4552.776 L 569.396 4552.776 L 569.396 4548.168 L 551.468 4548.168 L 551.468 4552.776 L 558.524 4552.776 L 558.524 4584.24 L 558.236 4584.24 L 531.596 4548.168 L 521.516 4548.168 L 521.516 4552.776 L 527.708 4552.776 L 527.708 4590.36 L 522.308 4590.36 L 522.308 4594.968 L 540.164 4594.968 L 540.164 4590.36 L 532.748 4590.36 L 532.748 4558.104 L 533.036 4558.104 L 560.18 4594.968 L 563.564 4594.968 L 563.564 4594.968 Z  M 613.46 4610.304 L 570.836 4610.304 L 570.836 4528.944 L 613.46 4528.944 L 613.46 4610.304 L 613.46 4610.304 Z  M 605.18 4552.776 L 606.62 4562.784 L 611.3 4562.424 L 609.86 4548.168 L 574.436 4548.168 L 573.068 4562.424 L 577.676 4562.784 L 579.116 4552.776 L 589.484 4552.776 L 589.484 4590.36 L 581.42 4590.36 L 581.42 4594.968 L 603.02 4594.968 L 603.02 4590.36 L 594.74 4590.36 L 594.74 4552.776 L 605.18 4552.776 L 605.18 4552.776 Z  M 611.732 4590.36 L 611.732 4528.944 L 658.244 4528.944 L 658.244 4590.36 L 652.556 4590.36 L 637.22 4548.168 L 623.828 4548.168 L 623.828 4552.776 L 631.316 4552.776 L 617.42 4590.36 L 611.732 4590.36 L 611.732 4590.36 Z  M 634.988 4555.8 L 635.348 4555.8 L 642.98 4577.256 L 627.212 4577.256 L 634.988 4555.8 L 634.988 4555.8 Z  M 658.244 4594.968 L 658.244 4610.304 L 611.732 4610.304 L 611.732 4594.968 L 628.148 4594.968 L 628.148 4590.36 L 622.388 4590.36 L 625.7 4581.36 L 644.42 4581.36 L 647.588 4590.36 L 642.044 4590.36 L 642.044 4594.968 L 658.244 4594.968 L 658.244 4594.968 Z  M 704.468 4610.304 L 656.516 4610.304 L 656.516 4528.944 L 704.468 4528.944 L 704.468 4610.304 L 704.468 4610.304 Z  M 698.636 4591.368 L 698.636 4591.368 L 699.86 4582.368 L 695.396 4581.936 L 694.028 4588.848 L 694.028 4588.848 Q 689.852 4590.936 683.732 4590.936 L 683.732 4590.936 L 683.732 4590.936 Q 675.38 4590.936 670.52 4585.644 L 670.52 4585.644 L 670.52 4585.644 Q 665.66 4580.352 665.66 4571.64 L 665.66 4571.64 L 665.66 4571.64 Q 665.66 4563.144 670.376 4557.672 L 670.376 4557.672 L 670.376 4557.672 Q 675.092 4552.2 682.796 4552.2 L 682.796 4552.2 L 682.796 4552.2 Q 686.756 4552.2 689.42 4553.1 L 689.42 4553.1 L 689.42 4553.1 Q 692.084 4554 694.388 4555.512 L 694.388 4555.512 L 695.684 4562.352 L 700.22 4561.92 L 698.924 4552.92 L 698.924 4552.92 Q 696.044 4550.472 692.12 4548.96 L 692.12 4548.96 L 692.12 4548.96 Q 688.196 4547.448 682.364 4547.448 L 682.364 4547.448 L 682.364 4547.448 Q 675.524 4547.448 670.556 4550.832 L 670.556 4550.832 L 670.556 4550.832 Q 665.588 4554.216 662.852 4559.796 L 662.852 4559.796 L 662.852 4559.796 Q 660.116 4565.376 660.116 4571.856 L 660.116 4571.856 L 660.116 4571.856 Q 660.116 4582.08 666.452 4588.884 L 666.452 4588.884 L 666.452 4588.884 Q 672.788 4595.688 683.012 4595.688 L 683.012 4595.688 L 683.012 4595.688 Q 693.02 4595.688 698.636 4591.368 Z  M 745.364 4610.304 L 702.74 4610.304 L 702.74 4528.944 L 745.364 4528.944 L 745.364 4610.304 L 745.364 4610.304 Z  M 737.084 4552.776 L 738.524 4562.784 L 743.204 4562.424 L 741.764 4548.168 L 706.34 4548.168 L 704.972 4562.424 L 709.58 4562.784 L 711.02 4552.776 L 721.388 4552.776 L 721.388 4590.36 L 713.324 4590.36 L 713.324 4594.968 L 734.924 4594.968 L 734.924 4590.36 L 726.644 4590.36 L 726.644 4552.776 L 737.084 4552.776 L 737.084 4552.776 Z " fill="rgb(175,54,185)"/></svg>