<?xml version="1.0" standalone="no"?><!-- Generator: Gravit.io --><svg xmlns="http://www.w3.org/2000/svg" xmlns:xlink="http://www.w3.org/1999/xlink" style="isolation:isolate" viewBox="369.772 3236.8 409.456 86.4" width="409.456" height="86.4"><path d=" M 418.588 3320.104 L 370.636 3320.104 L 370.636 3238.744 L 418.588 3238.744 L 418.588 3320.104 L 418.588 3320.104 Z  M 412.756 3301.168 L 412.756 3301.168 L 413.98 3292.168 L 409.516 3291.736 L 408.148 3298.648 L 408.148 3298.648 Q 403.972 3300.736 397.852 3300.736 L 397.852 3300.736 L 397.852 3300.736 Q 389.5 3300.736 384.64 3295.444 L 384.64 3295.444 L 384.64 3295.444 Q 379.78 3290.152 379.78 3281.44 L 379.78 3281.44 L 379.78 3281.44 Q 379.78 3272.944 384.496 3267.472 L 384.496 3267.472 L 384.496 3267.472 Q 389.212 3262 396.916 3262 L 396.916 3262 L 396.916 3262 Q 400.876 3262 403.54 3262.9 L 403.54 3262.9 L 403.54 3262.9 Q 406.204 3263.8 408.508 3265.312 L 408.508 3265.312 L 409.804 3272.152 L 414.34 3271.72 L 413.044 3262.72 L 413.044 3262.72 Q 410.164 3260.272 406.24 3258.76 L 406.24 3258.76 L 406.24 3258.76 Q 402.316 3257.248 396.484 3257.248 L 396.484 3257.248 L 396.484 3257.248 Q 389.644 3257.248 384.676 3260.632 L 384.676 3260.632 L 384.676 3260.632 Q 379.708 3264.016 376.972 3269.596 L 376.972 3269.596 L 376.972 3269.596 Q 374.236 3275.176 374.236 3281.656 L 374.236 3281.656 L 374.236 3281.656 Q 374.236 3291.88 380.572 3298.684 L 380.572 3298.684 L 380.572 3298.684 Q 386.908 3305.488 397.132 3305.488 L 397.132 3305.488 L 397.132 3305.488 Q 407.14 3305.488 412.756 3301.168 Z  M 470.788 3320.104 L 416.86 3320.104 L 416.86 3238.744 L 470.788 3238.744 L 470.788 3320.104 L 470.788 3320.104 Z  M 467.26 3281.368 L 467.26 3281.368 L 467.26 3281.368 Q 467.26 3271.36 460.78 3264.304 L 460.78 3264.304 L 460.78 3264.304 Q 454.3 3257.248 443.788 3257.248 L 443.788 3257.248 L 443.788 3257.248 Q 433.42 3257.248 426.904 3264.268 L 426.904 3264.268 L 426.904 3264.268 Q 420.388 3271.288 420.388 3281.368 L 420.388 3281.368 L 420.388 3281.368 Q 420.388 3291.304 426.724 3298.396 L 426.724 3298.396 L 426.724 3298.396 Q 433.06 3305.488 443.644 3305.488 L 443.644 3305.488 L 443.644 3305.488 Q 450.7 3305.488 456.028 3302.212 L 456.028 3302.212 L 456.028 3302.212 Q 461.356 3298.936 464.308 3293.464 L 464.308 3293.464 L 464.308 3293.464 Q 467.26 3287.992 467.26 3281.368 Z  M 461.572 3281.44 L 461.572 3281.44 L 461.572 3281.44 Q 461.572 3289.576 456.892 3295.156 L 456.892 3295.156 L 456.892 3295.156 Q 452.212 3300.736 443.932 3300.736 L 443.932 3300.736 L 443.932 3300.736 Q 435.436 3300.736 430.756 3294.976 L 430.756 3294.976 L 430.756 3294.976 Q 426.076 3289.216 426.076 3281.296 L 426.076 3281.296 L 426.076 3281.296 Q 426.076 3273.232 430.756 3267.616 L 430.756 3267.616 L 430.756 3267.616 Q 435.436 3262 443.788 3262 L 443.788 3262 L 443.788 3262 Q 451.924 3262 456.748 3267.508 L 456.748 3267.508 L 456.748 3267.508 Q 461.572 3273.016 461.572 3281.44 Z  M 533.932 3320.104 L 469.06 3320.104 L 469.06 3238.744 L 533.932 3238.744 L 533.932 3320.104 L 533.932 3320.104 Z  M 524.284 3300.16 L 524.284 3262.576 L 530.404 3262.576 L 530.404 3257.968 L 519.604 3257.968 L 501.892 3294.616 L 501.604 3294.616 L 483.388 3257.968 L 472.66 3257.968 L 472.66 3262.576 L 478.78 3262.576 L 478.78 3300.16 L 472.876 3300.16 L 472.876 3304.768 L 489.436 3304.768 L 489.436 3300.16 L 483.82 3300.16 L 483.82 3270.136 L 484.108 3270.136 L 500.164 3302.392 L 502.972 3302.392 L 518.668 3270.352 L 518.956 3270.352 L 518.956 3300.16 L 513.484 3300.16 L 513.484 3304.768 L 530.116 3304.768 L 530.116 3300.16 L 524.284 3300.16 L 524.284 3300.16 Z  M 574.972 3320.104 L 532.204 3320.104 L 532.204 3238.744 L 574.972 3238.744 L 574.972 3320.104 L 574.972 3320.104 Z  M 572.092 3272.296 L 572.092 3272.296 L 572.092 3272.296 Q 572.092 3266.464 568.312 3262.216 L 568.312 3262.216 L 568.312 3262.216 Q 564.532 3257.968 555.82 3257.968 L 555.82 3257.968 L 535.948 3257.968 L 535.948 3262.576 L 541.852 3262.576 L 541.852 3300.16 L 535.948 3300.16 L 535.948 3304.768 L 555.172 3304.768 L 555.172 3300.16 L 547.108 3300.16 L 547.108 3287.344 L 556.252 3287.344 L 556.252 3287.344 Q 563.164 3287.344 567.628 3283.492 L 567.628 3283.492 L 567.628 3283.492 Q 572.092 3279.64 572.092 3272.296 Z  M 566.476 3272.44 L 566.476 3272.44 L 566.476 3272.44 Q 566.476 3282.736 555.604 3282.736 L 555.604 3282.736 L 547.108 3282.736 L 547.108 3262.576 L 555.388 3262.576 L 555.388 3262.576 Q 561.148 3262.576 563.812 3265.24 L 563.812 3265.24 L 563.812 3265.24 Q 566.476 3267.904 566.476 3272.44 Z  M 573.244 3300.16 L 573.244 3238.744 L 619.756 3238.744 L 619.756 3300.16 L 614.068 3300.16 L 598.732 3257.968 L 585.34 3257.968 L 585.34 3262.576 L 592.828 3262.576 L 578.932 3300.16 L 573.244 3300.16 L 573.244 3300.16 Z  M 596.5 3265.6 L 596.86 3265.6 L 604.492 3287.056 L 588.724 3287.056 L 596.5 3265.6 L 596.5 3265.6 Z  M 619.756 3304.768 L 619.756 3320.104 L 573.244 3320.104 L 573.244 3304.768 L 589.66 3304.768 L 589.66 3300.16 L 583.9 3300.16 L 587.212 3291.16 L 605.932 3291.16 L 609.1 3300.16 L 603.556 3300.16 L 603.556 3304.768 L 619.756 3304.768 L 619.756 3304.768 Z  M 672.532 3320.104 L 618.028 3320.104 L 618.028 3238.744 L 672.532 3238.744 L 672.532 3320.104 L 672.532 3320.104 Z  M 663.532 3304.768 L 663.532 3262.576 L 669.364 3262.576 L 669.364 3257.968 L 651.436 3257.968 L 651.436 3262.576 L 658.492 3262.576 L 658.492 3294.04 L 658.204 3294.04 L 631.564 3257.968 L 621.484 3257.968 L 621.484 3262.576 L 627.676 3262.576 L 627.676 3300.16 L 622.276 3300.16 L 622.276 3304.768 L 640.132 3304.768 L 640.132 3300.16 L 632.716 3300.16 L 632.716 3267.904 L 633.004 3267.904 L 660.148 3304.768 L 663.532 3304.768 L 663.532 3304.768 Z  M 695.428 3320.104 L 670.804 3320.104 L 670.804 3238.744 L 695.428 3238.744 L 695.428 3320.104 L 695.428 3320.104 Z  M 674.548 3300.16 L 674.548 3304.768 L 691.612 3304.768 L 691.612 3300.16 L 685.78 3300.16 L 685.78 3262.576 L 691.612 3262.576 L 691.612 3257.968 L 674.548 3257.968 L 674.548 3262.576 L 680.452 3262.576 L 680.452 3300.16 L 674.548 3300.16 L 674.548 3300.16 Z  M 737.476 3320.104 L 693.7 3320.104 L 693.7 3238.744 L 737.476 3238.744 L 737.476 3320.104 L 737.476 3320.104 Z  M 697.444 3300.16 L 697.444 3304.768 L 732.292 3304.768 L 733.66 3291.52 L 729.124 3291.016 L 727.684 3300.16 L 708.604 3300.16 L 708.604 3283.312 L 730.708 3283.312 L 730.708 3278.704 L 708.604 3278.704 L 708.604 3262.576 L 727.036 3262.576 L 728.476 3271.72 L 733.084 3271.216 L 731.644 3257.968 L 697.444 3257.968 L 697.444 3262.576 L 703.348 3262.576 L 703.348 3300.16 L 697.444 3300.16 L 697.444 3300.16 Z  M 775.564 3320.104 L 735.748 3320.104 L 735.748 3238.744 L 775.564 3238.744 L 775.564 3320.104 L 775.564 3320.104 Z  M 771.748 3291.664 L 771.748 3291.664 L 771.748 3291.664 Q 771.748 3286.336 769.192 3283.636 L 769.192 3283.636 L 769.192 3283.636 Q 766.636 3280.936 763.072 3279.82 L 763.072 3279.82 L 763.072 3279.82 Q 759.508 3278.704 756.34 3277.984 L 756.34 3277.984 L 756.34 3277.984 Q 752.38 3277.048 749.14 3275.536 L 749.14 3275.536 L 749.14 3275.536 Q 745.9 3274.024 745.9 3269.632 L 745.9 3269.632 L 745.9 3269.632 Q 745.9 3265.888 748.6 3263.908 L 748.6 3263.908 L 748.6 3263.908 Q 751.3 3261.928 755.692 3261.928 L 755.692 3261.928 L 755.692 3261.928 Q 757.78 3261.928 760.084 3262.324 L 760.084 3262.324 L 760.084 3262.324 Q 762.388 3262.72 764.62 3263.872 L 764.62 3263.872 L 765.34 3270.856 L 769.66 3270.424 L 769.228 3261.136 L 769.228 3261.136 Q 766.996 3259.408 763.036 3258.328 L 763.036 3258.328 L 763.036 3258.328 Q 759.076 3257.248 755.188 3257.248 L 755.188 3257.248 L 755.188 3257.248 Q 749.14 3257.248 744.712 3260.416 L 744.712 3260.416 L 744.712 3260.416 Q 740.284 3263.584 740.284 3270.208 L 740.284 3270.208 L 740.284 3270.208 Q 740.284 3274.816 742.444 3277.228 L 742.444 3277.228 L 742.444 3277.228 Q 744.604 3279.64 747.844 3280.756 L 747.844 3280.756 L 747.844 3280.756 Q 751.084 3281.872 754.396 3282.592 L 754.396 3282.592 L 754.396 3282.592 Q 758.716 3283.6 762.388 3285.22 L 762.388 3285.22 L 762.388 3285.22 Q 766.06 3286.84 766.06 3292.168 L 766.06 3292.168 L 766.06 3292.168 Q 766.06 3296.92 762.712 3298.9 L 762.712 3298.9 L 762.712 3298.9 Q 759.364 3300.88 754.756 3300.88 L 754.756 3300.88 L 754.756 3300.88 Q 752.164 3300.88 749.788 3300.448 L 749.788 3300.448 L 749.788 3300.448 Q 747.412 3300.016 745.036 3298.792 L 745.036 3298.792 L 745.324 3292.888 L 741.004 3292.456 L 739.996 3301.672 L 739.996 3301.672 Q 745.252 3305.488 755.044 3305.488 L 755.044 3305.488 L 755.044 3305.488 Q 762.172 3305.488 766.96 3301.96 L 766.96 3301.96 L 766.96 3301.96 Q 771.748 3298.432 771.748 3291.664 Z " fill="rgb(175,54,185)"/></svg>