<?xml version="1.0" standalone="no"?><!-- Generator: Gravit.io --><svg xmlns="http://www.w3.org/2000/svg" xmlns:xlink="http://www.w3.org/1999/xlink" style="isolation:isolate" viewBox="313.772 1827.8 537.456 86.4" width="537.456" height="86.4"><path d=" M 357.26 1911.104 L 314.636 1911.104 L 314.636 1829.744 L 357.26 1829.744 L 357.26 1911.104 L 357.26 1911.104 Z  M 348.98 1853.576 L 350.42 1863.584 L 355.1 1863.224 L 353.66 1848.968 L 318.236 1848.968 L 316.868 1863.224 L 321.476 1863.584 L 322.916 1853.576 L 333.284 1853.576 L 333.284 1891.16 L 325.22 1891.16 L 325.22 1895.768 L 346.82 1895.768 L 346.82 1891.16 L 338.54 1891.16 L 338.54 1853.576 L 348.98 1853.576 L 348.98 1853.576 Z  M 399.308 1911.104 L 355.532 1911.104 L 355.532 1829.744 L 399.308 1829.744 L 399.308 1911.104 L 399.308 1911.104 Z  M 359.276 1891.16 L 359.276 1895.768 L 394.124 1895.768 L 395.492 1882.52 L 390.956 1882.016 L 389.516 1891.16 L 370.436 1891.16 L 370.436 1874.312 L 392.54 1874.312 L 392.54 1869.704 L 370.436 1869.704 L 370.436 1853.576 L 388.868 1853.576 L 390.308 1862.72 L 394.916 1862.216 L 393.476 1848.968 L 359.276 1848.968 L 359.276 1853.576 L 365.18 1853.576 L 365.18 1891.16 L 359.276 1891.16 L 359.276 1891.16 Z  M 445.532 1911.104 L 397.58 1911.104 L 397.58 1829.744 L 445.532 1829.744 L 445.532 1911.104 L 445.532 1911.104 Z  M 439.7 1892.168 L 439.7 1892.168 L 440.924 1883.168 L 436.46 1882.736 L 435.092 1889.648 L 435.092 1889.648 Q 430.916 1891.736 424.796 1891.736 L 424.796 1891.736 L 424.796 1891.736 Q 416.444 1891.736 411.584 1886.444 L 411.584 1886.444 L 411.584 1886.444 Q 406.724 1881.152 406.724 1872.44 L 406.724 1872.44 L 406.724 1872.44 Q 406.724 1863.944 411.44 1858.472 L 411.44 1858.472 L 411.44 1858.472 Q 416.156 1853 423.86 1853 L 423.86 1853 L 423.86 1853 Q 427.82 1853 430.484 1853.9 L 430.484 1853.9 L 430.484 1853.9 Q 433.148 1854.8 435.452 1856.312 L 435.452 1856.312 L 436.748 1863.152 L 441.284 1862.72 L 439.988 1853.72 L 439.988 1853.72 Q 437.108 1851.272 433.184 1849.76 L 433.184 1849.76 L 433.184 1849.76 Q 429.26 1848.248 423.428 1848.248 L 423.428 1848.248 L 423.428 1848.248 Q 416.588 1848.248 411.62 1851.632 L 411.62 1851.632 L 411.62 1851.632 Q 406.652 1855.016 403.916 1860.596 L 403.916 1860.596 L 403.916 1860.596 Q 401.18 1866.176 401.18 1872.656 L 401.18 1872.656 L 401.18 1872.656 Q 401.18 1882.88 407.516 1889.684 L 407.516 1889.684 L 407.516 1889.684 Q 413.852 1896.488 424.076 1896.488 L 424.076 1896.488 L 424.076 1896.488 Q 434.084 1896.488 439.7 1892.168 Z  M 499.676 1911.104 L 443.804 1911.104 L 443.804 1829.744 L 499.676 1829.744 L 499.676 1911.104 L 499.676 1911.104 Z  M 478.796 1891.16 L 478.796 1895.768 L 495.86 1895.768 L 495.86 1891.16 L 489.956 1891.16 L 489.956 1853.576 L 495.86 1853.576 L 495.86 1848.968 L 478.796 1848.968 L 478.796 1853.576 L 484.7 1853.576 L 484.7 1869.704 L 458.708 1869.704 L 458.708 1853.576 L 464.612 1853.576 L 464.612 1848.968 L 447.548 1848.968 L 447.548 1853.576 L 453.452 1853.576 L 453.452 1891.16 L 447.548 1891.16 L 447.548 1895.768 L 464.612 1895.768 L 464.612 1891.16 L 458.708 1891.16 L 458.708 1874.168 L 484.7 1874.168 L 484.7 1891.16 L 478.796 1891.16 L 478.796 1891.16 Z  M 552.452 1911.104 L 497.948 1911.104 L 497.948 1829.744 L 552.452 1829.744 L 552.452 1911.104 L 552.452 1911.104 Z  M 543.452 1895.768 L 543.452 1853.576 L 549.284 1853.576 L 549.284 1848.968 L 531.356 1848.968 L 531.356 1853.576 L 538.412 1853.576 L 538.412 1885.04 L 538.124 1885.04 L 511.484 1848.968 L 501.404 1848.968 L 501.404 1853.576 L 507.596 1853.576 L 507.596 1891.16 L 502.196 1891.16 L 502.196 1895.768 L 520.052 1895.768 L 520.052 1891.16 L 512.636 1891.16 L 512.636 1858.904 L 512.924 1858.904 L 540.068 1895.768 L 543.452 1895.768 L 543.452 1895.768 Z  M 604.652 1911.104 L 550.724 1911.104 L 550.724 1829.744 L 604.652 1829.744 L 604.652 1911.104 L 604.652 1911.104 Z  M 601.124 1872.368 L 601.124 1872.368 L 601.124 1872.368 Q 601.124 1862.36 594.644 1855.304 L 594.644 1855.304 L 594.644 1855.304 Q 588.164 1848.248 577.652 1848.248 L 577.652 1848.248 L 577.652 1848.248 Q 567.284 1848.248 560.768 1855.268 L 560.768 1855.268 L 560.768 1855.268 Q 554.252 1862.288 554.252 1872.368 L 554.252 1872.368 L 554.252 1872.368 Q 554.252 1882.304 560.588 1889.396 L 560.588 1889.396 L 560.588 1889.396 Q 566.924 1896.488 577.508 1896.488 L 577.508 1896.488 L 577.508 1896.488 Q 584.564 1896.488 589.892 1893.212 L 589.892 1893.212 L 589.892 1893.212 Q 595.22 1889.936 598.172 1884.464 L 598.172 1884.464 L 598.172 1884.464 Q 601.124 1878.992 601.124 1872.368 Z  M 595.436 1872.44 L 595.436 1872.44 L 595.436 1872.44 Q 595.436 1880.576 590.756 1886.156 L 590.756 1886.156 L 590.756 1886.156 Q 586.076 1891.736 577.796 1891.736 L 577.796 1891.736 L 577.796 1891.736 Q 569.3 1891.736 564.62 1885.976 L 564.62 1885.976 L 564.62 1885.976 Q 559.94 1880.216 559.94 1872.296 L 559.94 1872.296 L 559.94 1872.296 Q 559.94 1864.232 564.62 1858.616 L 564.62 1858.616 L 564.62 1858.616 Q 569.3 1853 577.652 1853 L 577.652 1853 L 577.652 1853 Q 585.788 1853 590.612 1858.508 L 590.612 1858.508 L 590.612 1858.508 Q 595.436 1864.016 595.436 1872.44 Z  M 643.532 1911.104 L 602.924 1911.104 L 602.924 1829.744 L 643.532 1829.744 L 643.532 1911.104 L 643.532 1911.104 Z  M 606.668 1891.16 L 606.668 1895.768 L 639.716 1895.768 L 641.156 1880.792 L 636.476 1880.432 L 635.036 1891.16 L 617.828 1891.16 L 617.828 1853.576 L 625.676 1853.576 L 625.676 1848.968 L 606.668 1848.968 L 606.668 1853.576 L 612.572 1853.576 L 612.572 1891.16 L 606.668 1891.16 L 606.668 1891.16 Z  M 695.732 1911.104 L 641.804 1911.104 L 641.804 1829.744 L 695.732 1829.744 L 695.732 1911.104 L 695.732 1911.104 Z  M 692.204 1872.368 L 692.204 1872.368 L 692.204 1872.368 Q 692.204 1862.36 685.724 1855.304 L 685.724 1855.304 L 685.724 1855.304 Q 679.244 1848.248 668.732 1848.248 L 668.732 1848.248 L 668.732 1848.248 Q 658.364 1848.248 651.848 1855.268 L 651.848 1855.268 L 651.848 1855.268 Q 645.332 1862.288 645.332 1872.368 L 645.332 1872.368 L 645.332 1872.368 Q 645.332 1882.304 651.668 1889.396 L 651.668 1889.396 L 651.668 1889.396 Q 658.004 1896.488 668.588 1896.488 L 668.588 1896.488 L 668.588 1896.488 Q 675.644 1896.488 680.972 1893.212 L 680.972 1893.212 L 680.972 1893.212 Q 686.3 1889.936 689.252 1884.464 L 689.252 1884.464 L 689.252 1884.464 Q 692.204 1878.992 692.204 1872.368 Z  M 686.516 1872.44 L 686.516 1872.44 L 686.516 1872.44 Q 686.516 1880.576 681.836 1886.156 L 681.836 1886.156 L 681.836 1886.156 Q 677.156 1891.736 668.876 1891.736 L 668.876 1891.736 L 668.876 1891.736 Q 660.38 1891.736 655.7 1885.976 L 655.7 1885.976 L 655.7 1885.976 Q 651.02 1880.216 651.02 1872.296 L 651.02 1872.296 L 651.02 1872.296 Q 651.02 1864.232 655.7 1858.616 L 655.7 1858.616 L 655.7 1858.616 Q 660.38 1853 668.732 1853 L 668.732 1853 L 668.732 1853 Q 676.868 1853 681.692 1858.508 L 681.692 1858.508 L 681.692 1858.508 Q 686.516 1864.016 686.516 1872.44 Z  M 745.268 1911.104 L 694.004 1911.104 L 694.004 1829.744 L 745.268 1829.744 L 745.268 1911.104 L 745.268 1911.104 Z  M 738.86 1895.768 L 738.86 1876.328 L 742.532 1876.328 L 742.532 1871.648 L 722.444 1871.648 L 722.444 1876.328 L 733.604 1876.328 L 733.604 1880.504 L 733.604 1880.504 Q 733.604 1884.752 730.076 1888.244 L 730.076 1888.244 L 730.076 1888.244 Q 726.548 1891.736 720.14 1891.736 L 720.14 1891.736 L 720.14 1891.736 Q 712.436 1891.736 707.828 1886.408 L 707.828 1886.408 L 707.828 1886.408 Q 703.22 1881.08 703.22 1872.368 L 703.22 1872.368 L 703.22 1872.368 Q 703.22 1863.8 708.044 1858.4 L 708.044 1858.4 L 708.044 1858.4 Q 712.868 1853 720.716 1853 L 720.716 1853 L 720.716 1853 Q 725.036 1853 727.808 1854.044 L 727.808 1854.044 L 727.808 1854.044 Q 730.58 1855.088 732.524 1856.384 L 732.524 1856.384 L 733.964 1863.008 L 738.428 1862.504 L 737.132 1853.72 L 737.132 1853.72 Q 734.468 1851.344 730.256 1849.796 L 730.256 1849.796 L 730.256 1849.796 Q 726.044 1848.248 720.428 1848.248 L 720.428 1848.248 L 720.428 1848.248 Q 713.732 1848.248 708.584 1851.524 L 708.584 1851.524 L 708.584 1851.524 Q 703.436 1854.8 700.52 1860.308 L 700.52 1860.308 L 700.52 1860.308 Q 697.604 1865.816 697.604 1872.584 L 697.604 1872.584 L 697.604 1872.584 Q 697.604 1882.664 703.58 1889.576 L 703.58 1889.576 L 703.58 1889.576 Q 709.556 1896.488 719.204 1896.488 L 719.204 1896.488 L 719.204 1896.488 Q 724.388 1896.488 728.24 1894.436 L 728.24 1894.436 L 728.24 1894.436 Q 732.092 1892.384 734.18 1889.288 L 734.18 1889.288 L 734.828 1895.768 L 738.86 1895.768 L 738.86 1895.768 Z  M 768.164 1911.104 L 743.54 1911.104 L 743.54 1829.744 L 768.164 1829.744 L 768.164 1911.104 L 768.164 1911.104 Z  M 747.284 1891.16 L 747.284 1895.768 L 764.348 1895.768 L 764.348 1891.16 L 758.516 1891.16 L 758.516 1853.576 L 764.348 1853.576 L 764.348 1848.968 L 747.284 1848.968 L 747.284 1853.576 L 753.188 1853.576 L 753.188 1891.16 L 747.284 1891.16 L 747.284 1891.16 Z  M 810.212 1911.104 L 766.436 1911.104 L 766.436 1829.744 L 810.212 1829.744 L 810.212 1911.104 L 810.212 1911.104 Z  M 770.18 1891.16 L 770.18 1895.768 L 805.028 1895.768 L 806.396 1882.52 L 801.86 1882.016 L 800.42 1891.16 L 781.34 1891.16 L 781.34 1874.312 L 803.444 1874.312 L 803.444 1869.704 L 781.34 1869.704 L 781.34 1853.576 L 799.772 1853.576 L 801.212 1862.72 L 805.82 1862.216 L 804.38 1848.968 L 770.18 1848.968 L 770.18 1853.576 L 776.084 1853.576 L 776.084 1891.16 L 770.18 1891.16 L 770.18 1891.16 Z  M 848.3 1911.104 L 808.484 1911.104 L 808.484 1829.744 L 848.3 1829.744 L 848.3 1911.104 L 848.3 1911.104 Z  M 844.484 1882.664 L 844.484 1882.664 L 844.484 1882.664 Q 844.484 1877.336 841.928 1874.636 L 841.928 1874.636 L 841.928 1874.636 Q 839.372 1871.936 835.808 1870.82 L 835.808 1870.82 L 835.808 1870.82 Q 832.244 1869.704 829.076 1868.984 L 829.076 1868.984 L 829.076 1868.984 Q 825.116 1868.048 821.876 1866.536 L 821.876 1866.536 L 821.876 1866.536 Q 818.636 1865.024 818.636 1860.632 L 818.636 1860.632 L 818.636 1860.632 Q 818.636 1856.888 821.336 1854.908 L 821.336 1854.908 L 821.336 1854.908 Q 824.036 1852.928 828.428 1852.928 L 828.428 1852.928 L 828.428 1852.928 Q 830.516 1852.928 832.82 1853.324 L 832.82 1853.324 L 832.82 1853.324 Q 835.124 1853.72 837.356 1854.872 L 837.356 1854.872 L 838.076 1861.856 L 842.396 1861.424 L 841.964 1852.136 L 841.964 1852.136 Q 839.732 1850.408 835.772 1849.328 L 835.772 1849.328 L 835.772 1849.328 Q 831.812 1848.248 827.924 1848.248 L 827.924 1848.248 L 827.924 1848.248 Q 821.876 1848.248 817.448 1851.416 L 817.448 1851.416 L 817.448 1851.416 Q 813.02 1854.584 813.02 1861.208 L 813.02 1861.208 L 813.02 1861.208 Q 813.02 1865.816 815.18 1868.228 L 815.18 1868.228 L 815.18 1868.228 Q 817.34 1870.64 820.58 1871.756 L 820.58 1871.756 L 820.58 1871.756 Q 823.82 1872.872 827.132 1873.592 L 827.132 1873.592 L 827.132 1873.592 Q 831.452 1874.6 835.124 1876.22 L 835.124 1876.22 L 835.124 1876.22 Q 838.796 1877.84 838.796 1883.168 L 838.796 1883.168 L 838.796 1883.168 Q 838.796 1887.92 835.448 1889.9 L 835.448 1889.9 L 835.448 1889.9 Q 832.1 1891.88 827.492 1891.88 L 827.492 1891.88 L 827.492 1891.88 Q 824.9 1891.88 822.524 1891.448 L 822.524 1891.448 L 822.524 1891.448 Q 820.148 1891.016 817.772 1889.792 L 817.772 1889.792 L 818.06 1883.888 L 813.74 1883.456 L 812.732 1892.672 L 812.732 1892.672 Q 817.988 1896.488 827.78 1896.488 L 827.78 1896.488 L 827.78 1896.488 Q 834.908 1896.488 839.696 1892.96 L 839.696 1892.96 L 839.696 1892.96 Q 844.484 1889.432 844.484 1882.664 Z " fill="rgb(175,54,185)"/></svg>