<?xml version="1.0" standalone="no"?><!-- Generator: Gravit.io --><svg xmlns="http://www.w3.org/2000/svg" xmlns:xlink="http://www.w3.org/1999/xlink" style="isolation:isolate" viewBox="9.601 57 449.127 170" width="449.127" height="170"><path d=" M 75.337 226.704 L 10.465 226.704 L 10.465 145.344 L 75.337 145.344 L 75.337 226.704 L 75.337 226.704 Z  M 65.689 206.76 L 65.689 169.176 L 71.809 169.176 L 71.809 164.568 L 61.009 164.568 L 43.297 201.216 L 43.009 201.216 L 24.793 164.568 L 14.065 164.568 L 14.065 169.176 L 20.185 169.176 L 20.185 206.76 L 14.281 206.76 L 14.281 211.368 L 30.841 211.368 L 30.841 206.76 L 25.225 206.76 L 25.225 176.736 L 25.513 176.736 L 41.569 208.992 L 44.377 208.992 L 60.073 176.952 L 60.361 176.952 L 60.361 206.76 L 54.889 206.76 L 54.889 211.368 L 71.521 211.368 L 71.521 206.76 L 65.689 206.76 L 65.689 206.76 Z  M 121.561 226.704 L 73.609 226.704 L 73.609 145.344 L 121.561 145.344 L 121.561 226.704 L 121.561 226.704 Z  M 115.729 207.768 L 115.729 207.768 L 116.953 198.768 L 112.489 198.336 L 111.121 205.248 L 111.121 205.248 Q 106.945 207.336 100.825 207.336 L 100.825 207.336 L 100.825 207.336 Q 92.473 207.336 87.613 202.044 L 87.613 202.044 L 87.613 202.044 Q 82.753 196.752 82.753 188.04 L 82.753 188.04 L 82.753 188.04 Q 82.753 179.544 87.469 174.072 L 87.469 174.072 L 87.469 174.072 Q 92.185 168.6 99.889 168.6 L 99.889 168.6 L 99.889 168.6 Q 103.849 168.6 106.513 169.5 L 106.513 169.5 L 106.513 169.5 Q 109.177 170.4 111.481 171.912 L 111.481 171.912 L 112.777 178.752 L 117.313 178.32 L 116.017 169.32 L 116.017 169.32 Q 113.137 166.872 109.213 165.36 L 109.213 165.36 L 109.213 165.36 Q 105.289 163.848 99.457 163.848 L 99.457 163.848 L 99.457 163.848 Q 92.617 163.848 87.649 167.232 L 87.649 167.232 L 87.649 167.232 Q 82.681 170.616 79.945 176.196 L 79.945 176.196 L 79.945 176.196 Q 77.209 181.776 77.209 188.256 L 77.209 188.256 L 77.209 188.256 Q 77.209 198.48 83.545 205.284 L 83.545 205.284 L 83.545 205.284 Q 89.881 212.088 100.105 212.088 L 100.105 212.088 L 100.105 212.088 Q 110.113 212.088 115.729 207.768 Z  M 171.745 226.704 L 119.545 226.704 L 119.545 145.344 L 171.745 145.344 L 171.745 226.704 L 171.745 226.704 Z  M 168.145 187.896 L 168.145 187.896 L 168.145 187.896 Q 168.145 177.744 161.917 171.156 L 161.917 171.156 L 161.917 171.156 Q 155.689 164.568 144.241 164.568 L 144.241 164.568 L 124.729 164.568 L 124.729 169.104 L 130.633 169.104 L 130.633 206.832 L 124.729 206.832 L 124.729 211.368 L 144.457 211.368 L 144.457 211.368 Q 155.545 211.368 161.845 204.78 L 161.845 204.78 L 161.845 204.78 Q 168.145 198.192 168.145 187.896 Z  M 162.529 187.968 L 162.529 187.968 L 162.529 187.968 Q 162.529 196.68 157.813 201.756 L 157.813 201.756 L 157.813 201.756 Q 153.097 206.832 144.169 206.832 L 144.169 206.832 L 135.889 206.832 L 135.889 169.104 L 144.169 169.104 L 144.169 169.104 Q 153.097 169.104 157.813 174.288 L 157.813 174.288 L 157.813 174.288 Q 162.529 179.472 162.529 187.968 Z  M 213.793 226.704 L 170.017 226.704 L 170.017 145.344 L 213.793 145.344 L 213.793 226.704 L 213.793 226.704 Z  M 173.761 206.76 L 173.761 211.368 L 208.609 211.368 L 209.977 198.12 L 205.441 197.616 L 204.001 206.76 L 184.921 206.76 L 184.921 189.912 L 207.025 189.912 L 207.025 185.304 L 184.921 185.304 L 184.921 169.176 L 203.353 169.176 L 204.793 178.32 L 209.401 177.816 L 207.961 164.568 L 173.761 164.568 L 173.761 169.176 L 179.665 169.176 L 179.665 206.76 L 173.761 206.76 L 173.761 206.76 Z  M 257.929 226.704 L 212.065 226.704 L 212.065 145.344 L 257.929 145.344 L 257.929 226.704 L 257.929 226.704 Z  M 237.049 191.784 L 247.129 211.368 L 256.489 211.368 L 256.489 206.76 L 250.585 206.76 L 242.233 190.776 L 242.233 190.776 Q 247.201 189.48 249.721 185.916 L 249.721 185.916 L 249.721 185.916 Q 252.241 182.352 252.241 177.816 L 252.241 177.816 L 252.241 177.816 Q 252.241 172.128 248.497 168.348 L 248.497 168.348 L 248.497 168.348 Q 244.753 164.568 236.041 164.568 L 236.041 164.568 L 215.809 164.568 L 215.809 169.176 L 221.713 169.176 L 221.713 206.76 L 215.809 206.76 L 215.809 211.368 L 233.305 211.368 L 233.305 206.76 L 227.041 206.76 L 227.041 191.784 L 237.049 191.784 L 237.049 191.784 Z  M 246.697 178.032 L 246.697 178.032 L 246.697 178.032 Q 246.697 182.424 244.105 184.908 L 244.105 184.908 L 244.105 184.908 Q 241.513 187.392 235.537 187.392 L 235.537 187.392 L 227.041 187.392 L 227.041 169.176 L 235.393 169.176 L 235.393 169.176 Q 241.369 169.176 244.033 171.3 L 244.033 171.3 L 244.033 171.3 Q 246.697 173.424 246.697 178.032 Z  M 321.073 226.704 L 256.201 226.704 L 256.201 145.344 L 321.073 145.344 L 321.073 226.704 L 321.073 226.704 Z  M 311.425 206.76 L 311.425 169.176 L 317.545 169.176 L 317.545 164.568 L 306.745 164.568 L 289.033 201.216 L 288.745 201.216 L 270.529 164.568 L 259.801 164.568 L 259.801 169.176 L 265.921 169.176 L 265.921 206.76 L 260.017 206.76 L 260.017 211.368 L 276.577 211.368 L 276.577 206.76 L 270.961 206.76 L 270.961 176.736 L 271.249 176.736 L 287.305 208.992 L 290.113 208.992 L 305.809 176.952 L 306.097 176.952 L 306.097 206.76 L 300.625 206.76 L 300.625 211.368 L 317.257 211.368 L 317.257 206.76 L 311.425 206.76 L 311.425 206.76 Z  M 373.273 226.704 L 319.345 226.704 L 319.345 145.344 L 373.273 145.344 L 373.273 226.704 L 373.273 226.704 Z  M 369.745 187.968 L 369.745 187.968 L 369.745 187.968 Q 369.745 177.96 363.265 170.904 L 363.265 170.904 L 363.265 170.904 Q 356.785 163.848 346.273 163.848 L 346.273 163.848 L 346.273 163.848 Q 335.905 163.848 329.389 170.868 L 329.389 170.868 L 329.389 170.868 Q 322.873 177.888 322.873 187.968 L 322.873 187.968 L 322.873 187.968 Q 322.873 197.904 329.209 204.996 L 329.209 204.996 L 329.209 204.996 Q 335.545 212.088 346.129 212.088 L 346.129 212.088 L 346.129 212.088 Q 353.185 212.088 358.513 208.812 L 358.513 208.812 L 358.513 208.812 Q 363.841 205.536 366.793 200.064 L 366.793 200.064 L 366.793 200.064 Q 369.745 194.592 369.745 187.968 Z  M 364.057 188.04 L 364.057 188.04 L 364.057 188.04 Q 364.057 196.176 359.377 201.756 L 359.377 201.756 L 359.377 201.756 Q 354.697 207.336 346.417 207.336 L 346.417 207.336 L 346.417 207.336 Q 337.921 207.336 333.241 201.576 L 333.241 201.576 L 333.241 201.576 Q 328.561 195.816 328.561 187.896 L 328.561 187.896 L 328.561 187.896 Q 328.561 179.832 333.241 174.216 L 333.241 174.216 L 333.241 174.216 Q 337.921 168.6 346.273 168.6 L 346.273 168.6 L 346.273 168.6 Q 354.409 168.6 359.233 174.108 L 359.233 174.108 L 359.233 174.108 Q 364.057 179.616 364.057 188.04 Z  M 414.169 226.704 L 371.545 226.704 L 371.545 145.344 L 414.169 145.344 L 414.169 226.704 L 414.169 226.704 Z  M 405.889 169.176 L 407.329 179.184 L 412.009 178.824 L 410.569 164.568 L 375.145 164.568 L 373.777 178.824 L 378.385 179.184 L 379.825 169.176 L 390.193 169.176 L 390.193 206.76 L 382.129 206.76 L 382.129 211.368 L 403.729 211.368 L 403.729 206.76 L 395.449 206.76 L 395.449 169.176 L 405.889 169.176 L 405.889 169.176 Z  M 455.065 226.704 L 412.441 226.704 L 412.441 145.344 L 455.065 145.344 L 455.065 226.704 L 455.065 226.704 Z  M 446.785 169.176 L 448.225 179.184 L 452.905 178.824 L 451.465 164.568 L 416.041 164.568 L 414.673 178.824 L 419.281 179.184 L 420.721 169.176 L 431.089 169.176 L 431.089 206.76 L 423.025 206.76 L 423.025 211.368 L 444.625 211.368 L 444.625 206.76 L 436.345 206.76 L 436.345 169.176 L 446.785 169.176 L 446.785 169.176 Z  M 56.329 140.304 L 10.465 140.304 L 10.465 58.944 L 56.329 58.944 L 56.329 140.304 L 56.329 140.304 Z  M 35.449 105.384 L 45.529 124.968 L 54.889 124.968 L 54.889 120.36 L 48.985 120.36 L 40.633 104.376 L 40.633 104.376 Q 45.601 103.08 48.121 99.516 L 48.121 99.516 L 48.121 99.516 Q 50.641 95.952 50.641 91.416 L 50.641 91.416 L 50.641 91.416 Q 50.641 85.728 46.897 81.948 L 46.897 81.948 L 46.897 81.948 Q 43.153 78.168 34.441 78.168 L 34.441 78.168 L 14.209 78.168 L 14.209 82.776 L 20.113 82.776 L 20.113 120.36 L 14.209 120.36 L 14.209 124.968 L 31.705 124.968 L 31.705 120.36 L 25.441 120.36 L 25.441 105.384 L 35.449 105.384 L 35.449 105.384 Z  M 45.097 91.632 L 45.097 91.632 L 45.097 91.632 Q 45.097 96.024 42.505 98.508 L 42.505 98.508 L 42.505 98.508 Q 39.913 100.992 33.937 100.992 L 33.937 100.992 L 25.441 100.992 L 25.441 82.776 L 33.793 82.776 L 33.793 82.776 Q 39.769 82.776 42.433 84.9 L 42.433 84.9 L 42.433 84.9 Q 45.097 87.024 45.097 91.632 Z  M 108.529 140.304 L 54.601 140.304 L 54.601 58.944 L 108.529 58.944 L 108.529 140.304 L 108.529 140.304 Z  M 105.001 101.568 L 105.001 101.568 L 105.001 101.568 Q 105.001 91.56 98.521 84.504 L 98.521 84.504 L 98.521 84.504 Q 92.041 77.448 81.529 77.448 L 81.529 77.448 L 81.529 77.448 Q 71.161 77.448 64.645 84.468 L 64.645 84.468 L 64.645 84.468 Q 58.129 91.488 58.129 101.568 L 58.129 101.568 L 58.129 101.568 Q 58.129 111.504 64.465 118.596 L 64.465 118.596 L 64.465 118.596 Q 70.801 125.688 81.385 125.688 L 81.385 125.688 L 81.385 125.688 Q 88.441 125.688 93.769 122.412 L 93.769 122.412 L 93.769 122.412 Q 99.097 119.136 102.049 113.664 L 102.049 113.664 L 102.049 113.664 Q 105.001 108.192 105.001 101.568 Z  M 99.313 101.64 L 99.313 101.64 L 99.313 101.64 Q 99.313 109.776 94.633 115.356 L 94.633 115.356 L 94.633 115.356 Q 89.953 120.936 81.673 120.936 L 81.673 120.936 L 81.673 120.936 Q 73.177 120.936 68.497 115.176 L 68.497 115.176 L 68.497 115.176 Q 63.817 109.416 63.817 101.496 L 63.817 101.496 L 63.817 101.496 Q 63.817 93.432 68.497 87.816 L 68.497 87.816 L 68.497 87.816 Q 73.177 82.2 81.529 82.2 L 81.529 82.2 L 81.529 82.2 Q 89.665 82.2 94.489 87.708 L 94.489 87.708 L 94.489 87.708 Q 99.313 93.216 99.313 101.64 Z  M 146.617 140.304 L 106.801 140.304 L 106.801 58.944 L 146.617 58.944 L 146.617 140.304 L 146.617 140.304 Z  M 142.801 111.864 L 142.801 111.864 L 142.801 111.864 Q 142.801 106.536 140.245 103.836 L 140.245 103.836 L 140.245 103.836 Q 137.689 101.136 134.125 100.02 L 134.125 100.02 L 134.125 100.02 Q 130.561 98.904 127.393 98.184 L 127.393 98.184 L 127.393 98.184 Q 123.433 97.248 120.193 95.736 L 120.193 95.736 L 120.193 95.736 Q 116.953 94.224 116.953 89.832 L 116.953 89.832 L 116.953 89.832 Q 116.953 86.088 119.653 84.108 L 119.653 84.108 L 119.653 84.108 Q 122.353 82.128 126.745 82.128 L 126.745 82.128 L 126.745 82.128 Q 128.833 82.128 131.137 82.524 L 131.137 82.524 L 131.137 82.524 Q 133.441 82.92 135.673 84.072 L 135.673 84.072 L 136.393 91.056 L 140.713 90.624 L 140.281 81.336 L 140.281 81.336 Q 138.049 79.608 134.089 78.528 L 134.089 78.528 L 134.089 78.528 Q 130.129 77.448 126.241 77.448 L 126.241 77.448 L 126.241 77.448 Q 120.193 77.448 115.765 80.616 L 115.765 80.616 L 115.765 80.616 Q 111.337 83.784 111.337 90.408 L 111.337 90.408 L 111.337 90.408 Q 111.337 95.016 113.497 97.428 L 113.497 97.428 L 113.497 97.428 Q 115.657 99.84 118.897 100.956 L 118.897 100.956 L 118.897 100.956 Q 122.137 102.072 125.449 102.792 L 125.449 102.792 L 125.449 102.792 Q 129.769 103.8 133.441 105.42 L 133.441 105.42 L 133.441 105.42 Q 137.113 107.04 137.113 112.368 L 137.113 112.368 L 137.113 112.368 Q 137.113 117.12 133.765 119.1 L 133.765 119.1 L 133.765 119.1 Q 130.417 121.08 125.809 121.08 L 125.809 121.08 L 125.809 121.08 Q 123.217 121.08 120.841 120.648 L 120.841 120.648 L 120.841 120.648 Q 118.465 120.216 116.089 118.992 L 116.089 118.992 L 116.377 113.088 L 112.057 112.656 L 111.049 121.872 L 111.049 121.872 Q 116.305 125.688 126.097 125.688 L 126.097 125.688 L 126.097 125.688 Q 133.225 125.688 138.013 122.16 L 138.013 122.16 L 138.013 122.16 Q 142.801 118.632 142.801 111.864 Z  M 184.705 140.304 L 144.889 140.304 L 144.889 58.944 L 184.705 58.944 L 184.705 140.304 L 184.705 140.304 Z  M 180.889 111.864 L 180.889 111.864 L 180.889 111.864 Q 180.889 106.536 178.333 103.836 L 178.333 103.836 L 178.333 103.836 Q 175.777 101.136 172.213 100.02 L 172.213 100.02 L 172.213 100.02 Q 168.649 98.904 165.481 98.184 L 165.481 98.184 L 165.481 98.184 Q 161.521 97.248 158.281 95.736 L 158.281 95.736 L 158.281 95.736 Q 155.041 94.224 155.041 89.832 L 155.041 89.832 L 155.041 89.832 Q 155.041 86.088 157.741 84.108 L 157.741 84.108 L 157.741 84.108 Q 160.441 82.128 164.833 82.128 L 164.833 82.128 L 164.833 82.128 Q 166.921 82.128 169.225 82.524 L 169.225 82.524 L 169.225 82.524 Q 171.529 82.92 173.761 84.072 L 173.761 84.072 L 174.481 91.056 L 178.801 90.624 L 178.369 81.336 L 178.369 81.336 Q 176.137 79.608 172.177 78.528 L 172.177 78.528 L 172.177 78.528 Q 168.217 77.448 164.329 77.448 L 164.329 77.448 L 164.329 77.448 Q 158.281 77.448 153.853 80.616 L 153.853 80.616 L 153.853 80.616 Q 149.425 83.784 149.425 90.408 L 149.425 90.408 L 149.425 90.408 Q 149.425 95.016 151.585 97.428 L 151.585 97.428 L 151.585 97.428 Q 153.745 99.84 156.985 100.956 L 156.985 100.956 L 156.985 100.956 Q 160.225 102.072 163.537 102.792 L 163.537 102.792 L 163.537 102.792 Q 167.857 103.8 171.529 105.42 L 171.529 105.42 L 171.529 105.42 Q 175.201 107.04 175.201 112.368 L 175.201 112.368 L 175.201 112.368 Q 175.201 117.12 171.853 119.1 L 171.853 119.1 L 171.853 119.1 Q 168.505 121.08 163.897 121.08 L 163.897 121.08 L 163.897 121.08 Q 161.305 121.08 158.929 120.648 L 158.929 120.648 L 158.929 120.648 Q 156.553 120.216 154.177 118.992 L 154.177 118.992 L 154.465 113.088 L 150.145 112.656 L 149.137 121.872 L 149.137 121.872 Q 154.393 125.688 164.185 125.688 L 164.185 125.688 L 164.185 125.688 Q 171.313 125.688 176.101 122.16 L 176.101 122.16 L 176.101 122.16 Q 180.889 118.632 180.889 111.864 Z " fill="rgb(0,0,0)"/></svg>